<svg width="1440" height="1024" viewBox="0 0 1440 1024" fill="none" xmlns="http://www.w3.org/2000/svg">
<mask id="mask0" mask-type="alpha" maskUnits="userSpaceOnUse" x="0" y="0" width="1440" height="1024">
<rect width="1440" height="1024" fill="url(#paint0_linear)"/>
</mask>
<g mask="url(#mask0)">
<g style="mix-blend-mode:soft-light" opacity="0.4">
<path opacity="0.3" d="M213.483 200.864L43.2649 371.6L-126.164 180.523L213.483 200.864Z" fill="url(#paint1_linear)"/>
<path d="M19.5073 7.52588L-115.489 201.218L77.5701 151.283L19.5073 7.52588Z" fill="url(#paint2_linear)"/>
<path opacity="0.7" d="M123.427 544.542L111.684 429.359L-99.4675 524.264L123.427 544.542Z" fill="url(#paint3_linear)"/>
<path opacity="0.4" d="M310.117 860.772L342.692 694.36L6.33766 737.464L310.117 860.772Z" fill="url(#paint4_linear)"/>
<path d="M491.67 901.7L104.723 906.253L-21.7693 714.494L-248.829 679.567L-517.071 441.436L-47.9046 402.869L35.6672 168.676L346.301 49.7934" stroke="url(#paint5_linear)" stroke-miterlimit="10"/>
<path d="M-21.7694 714.494L91.0325 500.546L105.428 902.448L358.225 568.858L249.76 904.557" stroke="url(#paint6_linear)" stroke-miterlimit="10"/>
<path d="M-248.204 675.981L279.271 398.942L-47.9048 402.869L-248.204 675.981ZM-248.204 675.981L-323.991 425.565L-209.713 121.443L-47.9048 402.869" stroke="url(#paint7_linear)" stroke-miterlimit="10"/>
<path d="M91.0327 500.546L311.241 630.856" stroke="url(#paint8_linear)" stroke-miterlimit="10"/>
<path d="M-50.1552 351.672C209.598 343.67 420.928 360.897 421.822 390.154C422.717 419.41 212.878 449.616 -46.8908 457.605C-306.644 465.607 -517.961 448.365 -518.868 419.123C-519.763 389.867 -309.909 359.673 -50.1552 351.672Z" fill="url(#paint9_radial)"/>
<g opacity="0.5">
<path opacity="0.5" d="M133.551 897.553C132.539 896.128 132.878 894.149 134.288 893.124C135.713 892.112 137.677 892.438 138.702 893.848C139.714 895.273 139.403 897.25 137.993 898.275C136.57 899.315 134.579 898.991 133.551 897.553Z" fill="#9FCFFF"/>
<path opacity="0.5" d="M123.578 697.44C122.085 695.35 122.557 692.441 124.645 690.92C126.735 689.427 129.659 689.911 131.167 692.015C132.645 694.092 132.174 697.001 130.098 698.507C128.01 700.028 125.071 699.531 123.578 697.44Z" fill="#9FCFFF"/>
<path opacity="0.5" d="M257.39 756.389C256.507 755.151 256.769 753.419 258.022 752.549C259.261 751.665 260.993 751.927 261.906 753.191C262.79 754.429 262.513 756.149 261.246 757.034C260.023 757.93 258.289 757.641 257.39 756.389Z" fill="#9FCFFF"/>
<path opacity="0.5" d="M192.28 997.281C191.286 995.897 191.599 993.949 192.999 992.967C194.396 991.957 196.332 992.286 197.326 993.67C198.336 995.067 197.994 997.018 196.61 998.013C195.226 999.007 193.277 998.694 192.28 997.281Z" fill="#9FCFFF"/>
<path opacity="0.5" d="M323.861 871.775C322.416 869.751 322.894 866.926 324.918 865.481C326.94 864.008 329.78 864.5 331.24 866.536C332.713 868.558 332.234 871.382 330.198 872.843C328.174 874.288 325.336 873.824 323.861 871.775Z" fill="#9FCFFF"/>
<path opacity="0.5" d="M122.209 966.898C120.908 965.073 121.314 962.552 123.139 961.251C124.95 959.966 127.457 960.358 128.773 962.196C130.073 964.02 129.652 966.529 127.841 967.814C126.032 969.128 123.495 968.709 122.209 966.898Z" fill="#9FCFFF"/>
<path opacity="0.5" d="M163.006 956.226C161.528 954.149 162 951.24 164.09 949.747C166.181 948.254 169.077 948.741 170.567 950.803C172.045 952.881 171.589 955.802 169.499 957.295C167.408 958.788 164.527 958.314 163.006 956.226Z" fill="#9FCFFF"/>
<path opacity="0.5" d="M201.858 867.57C200.575 865.786 201.003 863.362 202.746 862.096C204.504 860.844 206.969 861.254 208.207 862.999C209.459 864.757 209.075 867.192 207.319 868.473C205.561 869.726 203.111 869.328 201.858 867.57Z" fill="#9FCFFF"/>
<path opacity="0.5" d="M314.048 895.788C312.811 894.043 313.226 891.633 314.959 890.411C316.704 889.174 319.111 889.561 320.361 891.291C321.598 893.036 321.183 895.445 319.466 896.68C317.708 897.933 315.299 897.518 314.048 895.788Z" fill="#9FCFFF"/>
<path opacity="0.5" d="M292.638 718.372C291.691 717.054 291.974 715.235 293.292 714.289C294.625 713.355 296.443 713.637 297.377 714.97C298.308 716.275 298.026 718.094 296.708 719.041C295.393 720.015 293.556 719.692 292.638 718.372Z" fill="#9FCFFF"/>
<path opacity="0.5" d="M267.804 947.789C266.377 945.806 266.847 943.052 268.831 941.625C270.814 940.198 273.58 940.653 275.007 942.636C276.434 944.619 275.951 947.388 273.968 948.815C271.995 950.199 269.231 949.772 267.804 947.789Z" fill="#9FCFFF"/>
<path opacity="0.5" d="M265.388 760.184C264.363 758.774 264.697 756.739 266.135 755.711C267.573 754.684 269.593 755.005 270.62 756.444C271.648 757.882 271.326 759.901 269.888 760.929C268.437 761.971 266.417 761.65 265.388 760.184Z" fill="#9FCFFF"/>
<path opacity="0.5" d="M147.705 1015.31C146.212 1013.22 146.684 1010.31 148.774 1008.82C150.877 1007.31 153.786 1007.78 155.279 1009.87C156.788 1011.98 156.301 1014.87 154.213 1016.39C152.137 1017.9 149.213 1017.42 147.705 1015.31Z" fill="#9FCFFF"/>
<path opacity="0.5" d="M126.156 984.773C127.834 983.584 130.142 983.966 131.359 985.642C132.549 987.32 132.169 989.656 130.504 990.83" fill="#9FCFFF"/>
<path opacity="0.5" d="M626.306 944.033C624.973 942.155 625.402 939.575 627.249 938.216C629.127 936.882 631.72 937.296 633.056 939.202C634.403 941.065 633.974 943.645 632.096 944.979C630.261 946.323 627.653 945.896 626.306 944.033Z" fill="#9FCFFF"/>
<path opacity="0.5" d="M635.08 924.56C633.747 922.682 634.176 920.102 636.039 918.756C637.901 917.409 640.51 917.836 641.846 919.742C643.192 921.605 642.763 924.185 640.885 925.518C639.007 926.852 636.399 926.425 635.08 924.56Z" fill="#9FCFFF"/>
<path opacity="0.5" d="M682.908 896.825C681.752 895.201 682.112 892.98 683.735 891.795C685.347 890.654 687.583 891.027 688.737 892.624C689.891 894.221 689.533 896.47 687.91 897.655C686.298 898.796 684.049 898.437 682.908 896.825Z" fill="#9FCFFF"/>
<path opacity="0.5" d="M447.239 879.507C445.969 877.708 446.365 875.23 448.161 873.932C449.972 872.646 452.438 873.057 453.736 874.853C455.034 876.649 454.598 879.145 452.815 880.428C451.016 881.699 448.523 881.29 447.239 879.507Z" fill="#9FCFFF"/>
<path opacity="0.5" d="M499.023 737.265C497.644 735.349 498.092 732.654 500.021 731.26C501.95 729.865 504.645 730.313 506.055 732.255C507.436 734.199 506.989 736.894 505.072 738.273C503.115 739.67 500.42 739.223 499.023 737.265Z" fill="#9FCFFF"/>
<path opacity="0.5" d="M538.78 618.916C537.591 617.237 537.986 614.914 539.649 613.712C541.34 612.508 543.663 612.902 544.868 614.593C546.072 616.285 545.678 618.608 544.014 619.81C542.321 620.986 539.998 620.592 538.78 618.916Z" fill="#9FCFFF"/>
<path opacity="0.5" d="M529.774 646.237C528.309 644.144 528.77 641.278 530.876 639.798C532.953 638.32 535.821 638.809 537.325 640.856C538.815 642.919 538.344 645.828 536.266 647.306C534.176 648.799 531.295 648.325 529.774 646.237Z" fill="#9FCFFF"/>
<path opacity="0.5" d="M528.002 609.213C527.167 608.041 527.451 606.406 528.595 605.573C529.78 604.723 531.414 605.007 532.25 606.179C533.082 607.323 532.814 608.971 531.627 609.793C530.485 610.654 528.85 610.37 528.002 609.213Z" fill="#9FCFFF"/>
<path opacity="0.5" d="M520.761 636.355C519.761 634.914 520.088 632.951 521.5 631.954C522.897 630.944 524.889 631.268 525.914 632.678C526.911 634.09 526.6 636.067 525.19 637.092C523.765 638.104 521.814 637.762 520.761 636.355Z" fill="#9FCFFF"/>
<path opacity="0.5" d="M399.387 641.139C397.911 639.09 398.377 636.28 400.414 634.82C402.463 633.345 405.314 633.793 406.774 635.83C408.234 637.866 407.745 640.734 405.736 642.192C403.671 643.655 400.847 643.176 399.387 641.139Z" fill="#9FCFFF"/>
<path opacity="0.5" d="M467.626 747.316C466.841 746.238 467.094 744.733 468.159 743.964C469.236 743.179 470.741 743.432 471.511 744.496C472.31 745.586 472.058 747.092 470.978 747.848C469.888 748.648 468.398 748.408 467.626 747.316Z" fill="#9FCFFF"/>
<path opacity="0.5" d="M587.539 398.118C586.436 396.616 586.76 394.468 588.306 393.375C589.823 392.284 591.945 392.64 593.051 394.17C594.126 395.674 593.786 397.809 592.269 398.9C590.752 399.99 588.602 399.638 587.539 398.118Z" fill="#9FCFFF"/>
<path opacity="0.5" d="M512.491 683.168C511.19 681.344 511.624 678.82 513.446 677.491C515.258 676.205 517.792 676.596 519.093 678.42C520.409 680.257 520.005 682.807 518.151 684.082C516.354 685.381 513.82 684.99 512.491 683.168Z" fill="#9FCFFF"/>
<path opacity="0.5" d="M519.73 658.966C518.624 657.435 518.961 655.273 520.535 654.177C522.065 653.071 524.212 653.396 525.308 654.97C526.414 656.5 526.074 658.634 524.518 659.771C522.985 660.849 520.851 660.509 519.73 658.966Z" fill="#9FCFFF"/>
<path opacity="0.5" d="M559.878 482.481C558.673 480.79 559.052 478.454 560.731 477.265C562.422 476.06 564.745 476.455 565.934 478.133C567.152 479.81 566.757 482.132 565.079 483.322C563.387 484.526 561.08 484.145 559.878 482.481Z" fill="#9FCFFF"/>
<path opacity="0.5" d="M561.76 817.957C560.442 816.092 560.868 813.483 562.731 812.137C564.609 810.803 567.245 811.228 568.566 813.121C569.928 814.997 569.473 817.607 567.595 818.941C565.73 820.259 563.109 819.848 561.76 817.957Z" fill="#9FCFFF"/>
<path opacity="0.5" d="M58.2153 352.777C56.8993 350.94 57.3283 348.359 59.1655 347.043C61.0436 345.71 63.6085 346.126 64.9116 347.978C66.2732 349.854 65.8418 352.406 63.979 353.753C62.1265 355.056 59.5465 354.627 58.2153 352.777Z" fill="#9FCFFF"/>
<path opacity="0.5" d="M373.344 910.067C372.476 908.842 372.755 907.151 373.978 906.255C375.204 905.387 376.91 905.679 377.804 906.874C378.672 908.099 378.395 909.819 377.17 910.686C375.916 911.557 374.212 911.293 373.344 910.067Z" fill="#9FCFFF"/>
<path opacity="0.5" d="M419.746 818.659C418.481 816.916 418.891 814.451 420.647 813.17C422.445 811.9 424.898 812.326 426.163 814.068C427.434 815.867 427.008 818.32 425.265 819.585C423.479 820.84 421.001 820.445 419.746 818.659Z" fill="#9FCFFF"/>
<path opacity="0.5" d="M315.772 794.81C314.729 793.359 315.092 791.322 316.515 790.282C317.95 789.226 320.001 789.574 321.043 791.024C322.099 792.46 321.751 794.51 320.301 795.553C318.822 796.598 316.815 796.261 315.772 794.81Z" fill="#9FCFFF"/>
<path opacity="0.5" d="M2.00565 822.005C4.04244 820.545 6.88222 821.036 8.32722 823.06C9.80267 825.11 9.3263 827.963 7.27427 829.41" fill="#9FCFFF"/>
<path opacity="0.5" d="M109.534 130.022C108.445 128.532 108.785 126.398 110.315 125.292C111.846 124.186 113.954 124.556 115.06 126.087C116.166 127.617 115.824 129.723 114.279 130.816C112.761 131.907 110.627 131.567 109.534 130.022Z" fill="#9FCFFF"/>
<path opacity="0.5" d="M96.9356 9.64161C95.8425 8.09618 96.1801 5.93361 97.7384 4.82522C99.2838 3.73206 101.418 4.07209 102.542 5.64317C103.648 7.17337 103.295 9.32312 101.737 10.4315C100.191 11.5247 98.0545 11.1566 96.9356 9.64161Z" fill="#9FCFFF"/>
<path opacity="0.5" d="M116.761 377.93C115.384 376.041 115.836 373.403 117.74 372.039C119.644 370.675 122.282 371.127 123.659 373.016C125.023 374.919 124.584 377.543 122.68 378.907C120.776 380.271 118.125 379.834 116.761 377.93Z" fill="#9FCFFF"/>
<path opacity="0.5" d="M108.941 241.4C107.691 239.671 108.111 237.317 109.815 236.098C111.519 234.878 113.898 235.268 115.118 236.972C116.337 238.676 115.933 241.042 114.216 242.277C112.524 243.481 110.145 243.092 108.941 241.4Z" fill="#9FCFFF"/>
<path opacity="0.5" d="M30.1438 845.834C28.9064 844.089 29.3089 841.695 31.0411 840.473C32.7709 839.223 35.1803 839.638 36.4153 841.355C37.6527 843.1 37.2501 845.494 35.5331 846.729C33.8034 847.979 31.3941 847.564 30.1438 845.834Z" fill="#9FCFFF"/>
<path opacity="0.5" d="M10.664 413.933C9.84652 412.802 10.1071 411.225 11.2382 410.408C12.3692 409.59 13.961 409.864 14.7785 410.995C15.596 412.126 15.3353 413.702 14.1915 414.535C13.058 415.324 11.4815 415.064 10.664 413.933Z" fill="#9FCFFF"/>
<path opacity="0.5" d="M23.2833 414.279C22.3849 413.028 22.659 411.281 23.9231 410.367C25.1872 409.453 26.9474 409.712 27.8353 411.007C28.749 412.271 28.4771 414.046 27.1954 414.919C25.9466 415.846 24.1993 415.571 23.2833 414.279Z" fill="#9FCFFF"/>
<path opacity="0.5" d="M560.136 845.352C558.756 843.436 559.206 840.769 561.125 839.418C563.042 838.038 565.693 838.475 567.072 840.392C568.464 842.293 568.002 844.975 566.083 846.326C564.179 847.69 561.515 847.269 560.136 845.352Z" fill="#9FCFFF"/>
<path opacity="0.5" d="M379.481 1029.74C378.195 1027.93 378.616 1025.42 380.413 1024.12C382.194 1022.81 384.759 1023.23 386.044 1025.04C387.33 1026.85 386.939 1029.39 385.115 1030.69C383.331 1031.97 380.81 1031.57 379.481 1029.74Z" fill="#9FCFFF"/>
<path opacity="0.5" d="M117.686 612.305C116.261 610.35 116.719 607.612 118.677 606.215C120.632 604.79 123.354 605.235 124.782 607.218C126.194 609.188 125.736 611.926 123.766 613.338C121.793 614.722 119.086 614.29 117.686 612.305Z" fill="#9FCFFF"/>
<path opacity="0.5" d="M215.456 776.385C214.54 775.093 214.825 773.302 216.102 772.374C217.394 771.457 219.212 771.74 220.128 773.032C221.045 774.324 220.745 776.102 219.455 777.046C218.165 777.99 216.372 777.677 215.456 776.385Z" fill="#9FCFFF"/>
<path opacity="0.5" d="M202.297 794.482C200.806 792.419 201.298 789.58 203.334 788.119C205.397 786.629 208.252 787.133 209.712 789.17C211.188 791.22 210.726 794.085 208.662 795.548C206.61 796.995 203.759 796.547 202.297 794.482Z" fill="#9FCFFF"/>
<path opacity="0.5" d="M489.645 604.811C488.779 603.614 489.073 601.935 490.258 601.085C491.443 600.235 493.121 600.529 493.956 601.701C494.822 602.898 494.555 604.574 493.356 605.412C492.128 606.252 490.495 605.996 489.645 604.811Z" fill="#9FCFFF"/>
<path opacity="0.5" d="M530.006 909.806C528.74 908.064 529.151 905.598 530.909 904.345C532.651 903.08 535.104 903.506 536.354 905.236C537.622 907.006 537.212 909.472 535.467 910.709C533.696 911.977 531.274 911.577 530.006 909.806Z" fill="#9FCFFF"/>
<path opacity="0.5" d="M409.201 1001.75C408.143 1000.29 408.49 998.237 409.941 997.194C411.392 996.151 413.427 996.486 414.485 997.949C415.54 999.385 415.221 1001.43 413.745 1002.51C412.266 1003.55 410.231 1003.22 409.201 1001.75Z" fill="#9FCFFF"/>
<path opacity="0.5" d="M64.1498 746.953C63.0919 745.49 63.4391 743.439 64.8876 742.369C66.3536 741.339 68.4039 741.686 69.4747 743.134C70.5021 744.572 70.1701 746.636 68.7064 747.693C67.2275 748.739 65.1797 748.419 64.1498 746.953Z" fill="#9FCFFF"/>
<path opacity="0.5" d="M498.527 610.028C497.018 607.924 497.49 605.016 499.593 603.507C501.697 601.999 504.605 602.47 506.114 604.574C507.622 606.677 507.138 609.601 505.047 611.094C502.974 612.628 500.035 612.131 498.527 610.028Z" fill="#9FCFFF"/>
<path opacity="0.5" d="M499.492 976.696C498.512 975.324 498.815 973.419 500.187 972.439C501.546 971.475 503.466 971.791 504.43 973.15C505.394 974.509 505.106 976.427 503.735 977.406C502.363 978.385 500.458 978.082 499.492 976.696Z" fill="#9FCFFF"/>
<path opacity="0.5" d="M454.767 852.242C453.562 850.551 453.942 848.215 455.633 847.01C457.337 845.791 459.675 846.198 460.865 847.876C462.084 849.581 461.69 851.903 460.014 853.121C458.322 854.325 455.972 853.933 454.767 852.242Z" fill="#9FCFFF"/>
<path opacity="0.5" d="M451.975 916.164C451.077 914.912 451.349 913.137 452.585 912.226C453.879 911.338 455.626 911.612 456.54 912.876C457.426 914.142 457.167 915.903 455.887 916.803C454.654 917.743 452.891 917.456 451.975 916.164Z" fill="#9FCFFF"/>
<path opacity="0.5" d="M496.191 315.948C494.936 314.162 495.331 311.684 497.104 310.444C498.875 309.176 501.325 309.574 502.593 311.345C503.876 313.128 503.45 315.581 501.708 316.847C499.909 318.117 497.456 317.691 496.191 315.948Z" fill="#9FCFFF"/>
<path opacity="0.5" d="M345.437 930.346C344.042 928.416 344.505 925.734 346.434 924.34C348.364 922.945 351.058 923.393 352.453 925.322C353.835 927.267 353.372 929.949 351.455 931.328C349.511 932.71 346.831 932.275 345.437 930.346Z" fill="#9FCFFF"/>
<path opacity="0.5" d="M55.5231 887.279C57.4268 885.915 60.0783 886.352 61.4295 888.271C62.8216 890.173 62.3717 892.839 60.4527 894.191" fill="#9FCFFF"/>
<path opacity="0.5" d="M51.6911 857.709C50.8736 856.578 51.1471 854.986 52.2782 854.169C53.4092 853.351 55.0138 853.609 55.8184 854.756C56.6511 855.899 56.3777 857.491 55.2467 858.309C54.1156 859.126 52.511 858.868 51.6911 857.709Z" fill="#9FCFFF"/>
<path opacity="0.5" d="M148.478 954.871C147.498 953.499 147.814 951.579 149.201 950.612C150.572 949.633 152.478 949.936 153.472 951.32C154.452 952.692 154.136 954.612 152.764 955.592C151.38 956.586 149.475 956.283 148.478 954.871Z" fill="#9FCFFF"/>
<path opacity="0.5" d="M102.268 946.719C103.865 945.565 106.129 945.936 107.283 947.533C108.424 949.145 108.066 951.394 106.456 952.563" fill="#9FCFFF"/>
<path opacity="0.5" d="M80.7427 905.24C82.6312 903.863 85.2699 904.316 86.6339 906.219C87.9827 908.11 87.5457 910.762 85.642 912.126" fill="#9FCFFF"/>
<path opacity="0.5" d="M71.5605 895.528C73.1188 894.42 75.2965 894.77 76.392 896.344C77.5133 897.887 77.1628 900.065 75.5765 901.175" fill="#9FCFFF"/>
<path opacity="0.5" d="M106.745 808.26C105.687 806.796 106.047 804.731 107.51 803.673C108.974 802.615 111.024 802.962 112.082 804.426C113.14 805.889 112.808 807.953 111.344 809.01C109.865 810.055 107.802 809.724 106.745 808.26Z" fill="#9FCFFF"/>
<path opacity="0.5" d="M311.759 980.592C310.544 978.944 310.959 976.69 312.568 975.521C314.219 974.334 316.485 974.734 317.654 976.343C318.826 977.981 318.442 980.26 316.817 981.417C315.18 982.588 312.915 982.217 311.759 980.592Z" fill="#9FCFFF"/>
<path opacity="0.5" d="M32.0094 736.282C31.1414 735.057 31.4462 733.335 32.6565 732.454C33.895 731.571 35.6142 731.848 36.4974 733.086C37.3806 734.325 37.0887 736.031 35.8655 736.927C34.6118 737.798 32.9206 737.518 32.0094 736.282Z" fill="#9FCFFF"/>
<path opacity="0.5" d="M103.397 834.178C102.321 832.673 102.662 830.539 104.192 829.433C105.722 828.327 107.856 828.667 108.965 830.225C110.055 831.743 109.715 833.877 108.17 834.97C106.64 836.076 104.505 835.736 103.397 834.178Z" fill="#9FCFFF"/>
<path opacity="0.5" d="M80.0954 912.036C81.9583 910.689 84.5384 911.118 85.872 912.997C87.2184 914.859 86.7895 917.439 84.9114 918.773" fill="#9FCFFF"/>
<path opacity="0.5" d="M21.7251 795.872C20.7963 794.595 21.0938 792.789 22.3859 791.873C23.6628 790.945 25.4687 791.242 26.3847 792.534C27.2855 793.813 27.0161 795.617 25.724 796.533C24.4318 797.449 22.654 797.149 21.7251 795.872Z" fill="#9FCFFF"/>
<path opacity="0.5" d="M271.138 811.985C269.984 810.389 270.357 808.152 271.969 807.011C273.566 805.857 275.787 806.218 276.956 807.827C278.111 809.424 277.737 811.66 276.125 812.802C274.526 813.928 272.292 813.582 271.138 811.985Z" fill="#9FCFFF"/>
<path opacity="0.5" d="M53.3262 880.925C51.8484 878.848 52.3094 875.982 54.3847 874.476C56.4624 872.999 59.3431 873.472 60.8209 875.55C62.3268 877.625 61.8529 880.506 59.76 881.971C57.6975 883.462 54.8041 883.003 53.3262 880.925Z" fill="#9FCFFF"/>
<path opacity="0.5" d="M103.146 855.337C101.82 853.543 102.258 851.076 104.055 849.777C105.851 848.479 108.332 848.902 109.615 850.686C110.9 852.497 110.475 854.95 108.706 856.246C106.88 857.519 104.401 857.123 103.146 855.337Z" fill="#9FCFFF"/>
<path opacity="0.5" d="M137.841 923.057C136.496 921.222 136.923 918.614 138.788 917.296C140.654 915.977 143.219 916.394 144.565 918.256C145.883 920.122 145.467 922.687 143.589 924.02C141.752 925.336 139.172 924.907 137.841 923.057Z" fill="#9FCFFF"/>
<path opacity="0.5" d="M71.1304 815.436C69.6878 813.44 70.1561 810.659 72.1392 809.231C74.1351 807.789 76.9164 808.257 78.3742 810.266C79.804 812.277 79.3357 815.058 77.3374 816.473C75.3262 817.902 72.573 817.432 71.1304 815.436Z" fill="#9FCFFF"/>
<path opacity="0.5" d="M185.607 920.676C184.499 919.118 184.836 916.956 186.423 915.845C187.966 914.724 190.156 915.059 191.267 916.645C192.403 918.201 192.023 920.353 190.467 921.49C188.893 922.585 186.728 922.219 185.607 920.676Z" fill="#9FCFFF"/>
<path opacity="0.5" d="M155.424 1005.13C154.492 1003.82 154.777 1002.03 156.082 1001.1C157.374 1000.19 159.178 1000.46 160.109 1001.76C161.025 1003.05 160.725 1004.83 159.451 1005.79C158.143 1006.69 156.34 1006.42 155.424 1005.13Z" fill="#9FCFFF"/>
<path opacity="0.5" d="M577.013 967.852C575.955 966.389 576.299 964.31 577.776 963.237C579.252 962.164 581.318 962.524 582.391 964.001C583.464 965.477 583.107 967.571 581.628 968.616C580.123 969.691 578.06 969.359 577.013 967.852Z" fill="#9FCFFF"/>
<path opacity="0.5" d="M86.5913 754.089C85.5638 752.651 85.8853 750.631 87.3233 749.603C88.759 748.548 90.7812 748.897 91.8367 750.333C92.8513 751.786 92.5146 753.793 91.0918 754.834C89.6409 755.876 87.6187 755.527 86.5913 754.089Z" fill="#9FCFFF"/>
<path opacity="0.5" d="M313.426 692.175C312.156 690.377 312.579 687.896 314.334 686.615C316.146 685.33 318.612 685.74 319.895 687.524C321.165 689.323 320.754 691.788 318.971 693.071C317.215 694.352 314.722 693.944 313.426 692.175Z" fill="#9FCFFF"/>
<path opacity="0.5" d="M34.7884 628.984C33.3587 626.973 33.8269 624.191 35.81 622.764C37.8059 621.321 40.6025 621.803 42.017 623.801C43.4444 625.784 42.9761 628.565 40.993 629.993C38.9818 631.422 36.231 630.98 34.7884 628.984Z" fill="#9FCFFF"/>
<path opacity="0.5" d="M327.602 1026.99C326.638 1025.64 326.943 1023.76 328.302 1022.79C329.648 1021.85 331.538 1022.14 332.486 1023.48C333.451 1024.84 333.145 1026.72 331.786 1027.68C330.458 1028.67 328.581 1028.37 327.602 1026.99Z" fill="#9FCFFF"/>
<path opacity="0.5" d="M244.651 653.669C243.735 652.377 244.035 650.6 245.312 649.671C246.604 648.755 248.395 649.039 249.311 650.331C250.255 651.621 249.97 653.412 248.665 654.343C247.358 655.246 245.567 654.962 244.651 653.669Z" fill="#9FCFFF"/>
<path opacity="0.5" d="M540.005 299.098C539.043 297.767 539.336 295.906 540.682 294.957C542.015 294.023 543.849 294.318 544.811 295.649C545.757 296.967 545.451 298.844 544.118 299.777C542.788 300.739 540.952 300.416 540.005 299.098Z" fill="#9FCFFF"/>
<path opacity="0.5" d="M461.707 766.799C460.566 765.187 460.939 762.951 462.551 761.809C464.163 760.668 466.397 761.014 467.554 762.639C468.708 764.235 468.334 766.472 466.737 767.626C465.1 768.797 462.863 768.424 461.707 766.799Z" fill="#9FCFFF"/>
<path opacity="0.5" d="M494.963 297.812C494.11 296.599 494.376 294.923 495.602 294.055C496.786 293.205 498.478 293.484 499.343 294.682C500.196 295.894 499.927 297.542 498.704 298.438C497.519 299.289 495.828 299.01 494.963 297.812Z" fill="#9FCFFF"/>
<path opacity="0.5" d="M481.818 507.478C480.854 506.119 481.144 504.229 482.488 503.252C483.861 502.301 485.751 502.591 486.731 503.963C487.68 505.309 487.389 507.199 486.016 508.15C484.672 509.127 482.767 508.824 481.818 507.478Z" fill="#9FCFFF"/>
<path opacity="0.5" d="M456.893 411.778C455.466 409.795 455.936 407.042 457.92 405.615C459.903 404.188 462.669 404.643 464.083 406.641C465.511 408.624 465.055 411.39 463.059 412.833C461.099 414.202 458.321 413.762 456.893 411.778Z" fill="#9FCFFF"/>
<path opacity="0.5" d="M482.907 402.218C482.059 401.061 482.33 399.441 483.502 398.606C484.658 397.758 486.265 398.044 487.098 399.188C487.931 400.332 487.675 401.965 486.518 402.813C485.316 403.622 483.739 403.361 482.907 402.218Z" fill="#9FCFFF"/>
<path opacity="0.5" d="M623.616 972.353C622.156 970.317 622.607 967.495 624.646 966.062C626.67 964.617 629.494 965.096 630.924 967.107C632.382 969.116 631.919 971.953 629.879 973.386C627.871 974.843 625.061 974.377 623.616 972.353Z" fill="#9FCFFF"/>
<path opacity="0.5" d="M7.74335 766.083C6.36407 764.166 6.8139 761.5 8.74569 760.133C10.6622 758.754 13.3289 759.204 14.7082 761.12C16.0875 763.037 15.6376 765.704 13.721 767.083C11.7893 768.449 9.12263 768 7.74335 766.083Z" fill="#9FCFFF"/>
<path opacity="0.5" d="M163.242 598.301C162.392 597.116 162.676 595.481 163.86 594.631C165.019 593.811 166.667 594.079 167.515 595.236C168.337 596.423 168.066 598.043 166.897 598.906C165.71 599.729 164.09 599.458 163.242 598.301Z" fill="#9FCFFF"/>
<path opacity="0.5" d="M567.02 66.4422C566.021 65.0018 566.332 63.0253 567.755 61.985C569.165 60.96 571.172 61.2968 572.197 62.7067C573.211 64.16 572.885 66.1237 571.475 67.1487C570.024 68.1914 568.032 67.8674 567.02 66.4422Z" fill="#9FCFFF"/>
<path opacity="0.5" d="M318.464 464.072C317.226 462.327 317.642 459.918 319.343 458.67C321.076 457.448 323.511 457.833 324.72 459.58C325.97 461.31 325.552 463.691 323.823 464.942C322.121 466.189 319.712 465.774 318.464 464.072Z" fill="#9FCFFF"/>
<path opacity="0.5" d="M303.827 596.082C302.928 594.831 303.202 593.083 304.454 592.185C305.705 591.287 307.467 591.574 308.366 592.825C309.264 594.076 308.977 595.839 307.726 596.737C306.472 597.607 304.725 597.333 303.827 596.082Z" fill="#9FCFFF"/>
<path opacity="0.5" d="M325.685 401.227C324.754 399.922 325.036 398.103 326.354 397.156C327.674 396.238 329.493 396.52 330.424 397.825C331.356 399.13 331.045 400.951 329.753 401.867C328.41 402.844 326.617 402.532 325.685 401.227Z" fill="#9FCFFF"/>
<path opacity="0.5" d="M322.38 580.759C320.953 578.776 321.409 576.01 323.42 574.58C325.39 573.168 328.143 573.639 329.583 575.606C330.998 577.605 330.54 580.343 328.544 581.785C326.559 583.185 323.808 582.742 322.38 580.759Z" fill="#9FCFFF"/>
<path opacity="0.5" d="M331.992 549.289C331.013 547.917 331.344 546.009 332.713 545.002C334.085 544.023 336.005 544.339 336.987 545.738C337.966 547.11 337.65 549.03 336.279 550.009C334.923 551.002 333.002 550.686 331.992 549.289Z" fill="#9FCFFF"/>
<path opacity="0.5" d="M326.235 465.724C325.096 464.14 325.46 461.947 327.056 460.793C328.64 459.654 330.833 460.017 331.972 461.601C333.096 463.172 332.748 465.378 331.151 466.532C329.58 467.656 327.374 467.308 326.235 465.724Z" fill="#9FCFFF"/>
<path opacity="0.5" d="M364.3 187.868C363.146 186.271 363.509 184.078 365.106 182.924C366.69 181.785 368.924 182.131 370.078 183.727C371.232 185.324 370.858 187.56 369.246 188.702C367.634 189.843 365.426 189.467 364.3 187.868Z" fill="#9FCFFF"/>
<path opacity="0.5" d="M360.268 196.55C359.387 195.339 359.692 193.618 360.915 192.722C362.141 191.854 363.832 192.133 364.756 193.353C365.624 194.579 365.347 196.298 364.109 197.181C362.858 198.08 361.164 197.773 360.268 196.55Z" fill="#9FCFFF"/>
<path opacity="0.5" d="M307.386 183.741C305.89 181.622 306.349 178.729 308.439 177.236C310.543 175.728 313.439 176.214 314.919 178.32C316.425 180.395 315.953 183.304 313.835 184.8C311.8 186.288 308.892 185.816 307.386 183.741Z" fill="#9FCFFF"/>
<path opacity="0.5" d="M340.083 182.439C339.268 181.336 339.531 179.787 340.634 178.972C341.752 178.17 343.329 178.43 344.131 179.549C344.934 180.667 344.67 182.215 343.568 183.03C342.434 183.82 340.886 183.557 340.083 182.439Z" fill="#9FCFFF"/>
<path opacity="0.5" d="M694.32 667.922C693.308 666.497 693.619 664.52 695.045 663.508C696.455 662.483 698.461 662.82 699.487 664.23C700.512 665.64 700.172 667.619 698.747 668.631C697.309 669.658 695.333 669.347 694.32 667.922Z" fill="#9FCFFF"/>
<path opacity="0.5" d="M728.879 657.827C728.011 656.601 728.29 654.91 729.516 654.042C730.713 653.177 732.42 653.468 733.3 654.679C734.153 655.892 733.876 657.611 732.648 658.451C731.436 659.304 729.732 659.04 728.879 657.827Z" fill="#9FCFFF"/>
</g>
<path d="M21.4901 1002.51C22.3516 1004.49 24.6743 1005.37 26.6622 1004.5C28.6525 1003.65 29.5544 1001.31 28.6625 999.311C27.7858 997.323 25.4654 996.462 23.4903 997.323C21.4744 998.202 20.5878 1000.55 21.4901 1002.51Z" fill="#9FCFFF"/>
<path d="M138.855 309.572C139.596 311.288 141.613 312.077 143.328 311.308C145.042 310.54 145.818 308.537 145.049 306.823C144.296 305.121 142.294 304.346 140.592 305.099C138.862 305.855 138.074 307.872 138.855 309.572Z" fill="#9FCFFF"/>
<path d="M52.0956 290.72C52.9499 292.611 55.1428 293.469 57.0208 292.63C58.9117 291.776 59.7543 289.57 58.9152 287.692C58.089 285.799 55.8832 284.956 53.9924 285.81C52.1143 286.649 51.2694 288.827 52.0956 290.72Z" fill="#9FCFFF"/>
<path d="M128.129 857.507C128.868 859.196 130.885 859.984 132.6 859.216C134.314 858.447 135.089 856.445 134.321 854.731C133.552 853.016 131.565 852.254 129.836 853.009C128.149 853.775 127.361 855.793 128.129 857.507Z" fill="#9FCFFF"/>
<path d="M225.584 929.305C226.368 931.033 228.401 931.834 230.143 931.063C231.87 930.279 232.659 928.261 231.872 926.506C231.101 924.763 229.071 923.991 227.329 924.762C225.601 925.545 224.829 927.576 225.584 929.305Z" fill="#9FCFFF"/>
<path d="M31.7716 801.653C32.6307 803.6 34.8645 804.44 36.7986 803.596C38.7047 802.754 39.5858 800.503 38.7419 798.569C37.9005 796.663 35.6514 795.81 33.7173 796.654C31.7983 797.51 30.9301 799.747 31.7716 801.653Z" fill="#9FCFFF"/>
<path d="M163.491 429.938C164.395 431.924 166.733 432.826 168.706 431.936C170.694 431.059 171.596 428.721 170.706 426.749C169.814 424.748 167.492 423.859 165.504 424.736C163.503 425.628 162.614 427.95 163.491 429.938Z" fill="#9FCFFF"/>
<path d="M496.745 514.974C497.342 516.336 498.965 516.974 500.325 516.349C501.671 515.739 502.299 514.159 501.702 512.797C501.09 511.423 499.497 510.81 498.15 511.42C496.76 512.02 496.163 513.625 496.745 514.974Z" fill="#9FCFFF"/>
<path d="M200.181 400.685C200.834 402.197 202.586 402.867 204.112 402.199C205.594 401.521 206.251 399.783 205.598 398.271C204.948 396.786 203.167 396.119 201.683 396.769C200.201 397.447 199.544 399.185 200.181 400.685Z" fill="#9FCFFF"/>
<path d="M178.511 440.168C179.12 441.514 180.7 442.142 182.075 441.53C183.409 440.935 184.008 439.358 183.439 437.994C182.829 436.647 181.252 436.047 179.89 436.644C178.541 437.226 177.913 438.806 178.511 440.168Z" fill="#9FCFFF"/>
<path d="M60.9571 415.32C61.9396 417.553 64.555 418.558 66.8009 417.561C69.0469 416.563 70.0522 413.948 69.0288 411.732C68.0463 409.499 65.431 408.494 63.1698 409.479C60.9928 410.456 59.9746 413.087 60.9571 415.32Z" fill="#9FCFFF"/>
<path d="M82.3553 397.733C82.9195 399.041 84.4536 399.63 85.7745 399.051C87.0955 398.471 87.6719 396.953 87.0949 395.66C86.5179 394.367 84.9966 393.762 83.6885 394.327C82.3699 394.934 81.8063 396.438 82.3553 397.733Z" fill="#9FCFFF"/>
<path d="M414.52 495.127C415.251 496.732 417.121 497.447 418.728 496.745C420.335 496.042 421.064 494.157 420.361 492.549C419.615 490.932 417.761 490.229 416.153 490.932C414.533 491.65 413.82 493.548 414.52 495.127Z" fill="#9FCFFF"/>
<path d="M515.579 492.52C516.201 493.851 517.736 494.441 519.072 493.874C520.39 493.267 520.992 491.717 520.411 490.368C519.803 489.05 518.254 488.448 516.92 489.042C515.586 489.637 514.997 491.171 515.579 492.52Z" fill="#9FCFFF"/>
<path d="M3.63548 533.817C4.29823 535.287 5.99509 535.961 7.46434 535.298C8.93359 534.635 9.60537 532.911 8.94262 531.441C8.2951 529.985 6.55743 529.328 5.101 529.976C3.63175 530.639 2.98796 532.361 3.63548 533.817Z" fill="#9FCFFF"/>
<path d="M416.778 1016.64C417.511 1018.28 419.47 1019.04 421.1 1018.28C422.761 1017.54 423.5 1015.62 422.764 1013.96C422.029 1012.29 420.1 1011.56 418.442 1012.32C416.794 1013.04 416.042 1014.98 416.778 1016.64Z" fill="#9FCFFF"/>
<path d="M207.198 608.511C208.002 610.307 210.062 611.106 211.874 610.315C213.657 609.526 214.494 607.42 213.69 605.623C212.902 603.84 210.783 603.018 208.986 603.822C207.19 604.626 206.381 606.73 207.198 608.511Z" fill="#9FCFFF"/>
<path d="M197.666 607.589C198.263 608.951 199.899 609.574 201.289 608.974C202.663 608.362 203.276 606.77 202.674 605.352C202.062 603.977 200.439 603.339 199.051 603.966C197.664 604.594 197.066 606.199 197.666 607.589Z" fill="#9FCFFF"/>
<path d="M181.963 659.673C183.027 662.027 185.774 663.092 188.115 662.043C190.483 660.993 191.533 658.232 190.472 655.907C189.452 653.564 186.691 652.515 184.338 653.578C181.995 654.598 180.915 657.333 181.963 659.673Z" fill="#9FCFFF"/>
<path d="M199.628 632.148C200.174 633.415 201.635 633.968 202.902 633.422C204.154 632.862 204.733 631.372 204.173 630.12C203.614 628.868 202.154 628.314 200.899 628.846C199.619 629.408 199.068 630.896 199.628 632.148Z" fill="#9FCFFF"/>
</g>
<g style="mix-blend-mode:soft-light" opacity="0.2">
<path opacity="0.8" d="M1146.16 412.65L1168.93 232.715L1357.68 268.495L1146.16 412.65Z" fill="url(#paint10_linear)"/>
<path d="M1380.04 177.152L1243.43 115.279L1297 230.062L1380.04 177.152Z" fill="url(#paint11_linear)"/>
<path d="M1350.4 401.022L1343.21 255.59L1267.85 352.778L1350.4 401.022Z" fill="url(#paint12_linear)"/>
<path d="M1097.13 178.184L1146.31 229.964L1213.55 104.007L1097.13 178.184Z" fill="url(#paint13_linear)"/>
<path d="M886.755 94.2816L933.636 187.786L1081.5 39.8859L886.755 94.2816Z" fill="url(#paint14_linear)"/>
<path d="M782.728 142.796L969.835 -5.37424L1103.88 40.4876L1227.85 -28.1149L1448.57 -13.0977L1234.18 182.69L1281.73 328.49L1174.99 503.662" stroke="url(#paint15_linear)" stroke-miterlimit="10"/>
<path d="M1103.88 40.4876L1129.54 187.43L970.928 -3.25L973.396 254.878L899.698 50.1634" stroke="url(#paint16_linear)" stroke-miterlimit="10"/>
<path d="M1228.91 -26.1257L1076.01 308.009L1234.18 182.69L1228.91 -26.1257ZM1228.91 -26.1257L1360.33 67.4767L1419.27 258.979L1234.18 182.69" stroke="url(#paint17_linear)" stroke-miterlimit="10"/>
<path d="M1129.53 187.43L972.941 206.904" stroke="url(#paint18_linear)" stroke-miterlimit="10"/>
<path d="M1253.17 208.267C1133.34 314.726 1026.49 390.082 1014.51 376.587C1002.52 363.092 1089.94 265.855 1209.75 159.397C1329.57 52.9383 1436.43 -22.4176 1448.42 -8.92301C1460.42 4.57156 1372.99 101.809 1253.17 208.267Z" fill="url(#paint19_radial)"/>
<g opacity="0.5">
<path opacity="0.5" d="M959.042 9.74107C960.073 10.048 960.65 11.1406 960.343 12.1842C960.036 13.2154 958.956 13.7925 957.912 13.4855C956.881 13.1786 956.279 12.0982 956.598 11.0547C956.918 10.0234 958.01 9.43414 959.042 9.74107Z" fill="#9FCFFF"/>
<path opacity="0.5" d="M1039.38 103.638C1040.89 104.092 1041.76 105.701 1041.32 107.223C1040.87 108.733 1039.25 109.605 1037.73 109.15C1036.23 108.696 1035.36 107.088 1035.8 105.578C1036.25 104.043 1037.87 103.171 1039.38 103.638Z" fill="#9FCFFF"/>
<path opacity="0.5" d="M1135.12 76.2069C1136.4 76.5998 1137.15 77.9502 1136.75 79.2393C1136.37 80.5161 1135.02 81.2651 1133.73 80.8722C1132.46 80.4916 1131.71 79.1288 1132.09 77.852C1132.49 76.5507 1133.84 75.8263 1135.12 76.2069Z" fill="#9FCFFF"/>
<path opacity="0.5" d="M1132.83 84.225C1134.24 84.6424 1135.05 86.1525 1134.63 87.5644C1134.2 88.9762 1132.71 89.7865 1131.29 89.3691C1129.88 88.9394 1129.06 87.4416 1129.49 86.0297C1129.9 84.6056 1131.4 83.783 1132.83 84.225Z" fill="#9FCFFF"/>
<path opacity="0.5" d="M1141.8 85.8458C1142.97 86.2019 1143.66 87.4418 1143.29 88.645C1142.93 89.8236 1141.68 90.4988 1140.51 90.1428C1139.32 89.7867 1138.63 88.5222 1139.01 87.3436C1139.36 86.165 1140.61 85.4898 1141.8 85.8458Z" fill="#9FCFFF"/>
<path opacity="0.5" d="M1340.62 298.603C1341.9 298.972 1342.64 300.334 1342.23 301.611C1341.86 302.888 1340.5 303.637 1339.22 303.244C1337.95 302.863 1337.22 301.513 1337.59 300.236C1337.98 298.947 1339.35 298.21 1340.62 298.603Z" fill="#9FCFFF"/>
<path opacity="0.5" d="M951.858 125.335C952.754 125.605 953.27 126.55 953 127.459C952.73 128.367 951.784 128.871 950.864 128.601C949.967 128.331 949.452 127.385 949.734 126.477C950.004 125.568 950.95 125.065 951.858 125.335Z" fill="#9FCFFF"/>
<path opacity="0.5" d="M875.9 94.1097C877.361 94.5517 878.208 96.1109 877.766 97.5841C877.337 99.0573 875.765 99.9045 874.292 99.4625C872.819 99.0328 871.972 97.4614 872.414 95.9881C872.856 94.5149 874.415 93.6555 875.9 94.1097Z" fill="#9FCFFF"/>
<path opacity="0.5" d="M937.037 50.151C938.326 50.5316 939.051 51.8821 938.658 53.1589C938.277 54.4357 936.915 55.1601 935.65 54.7795C934.386 54.3989 933.637 53.0484 934.017 51.7716C934.41 50.4825 935.748 49.7582 937.037 50.151Z" fill="#9FCFFF"/>
<path opacity="0.5" d="M871.64 78.6873C872.892 79.0679 873.616 80.3938 873.223 81.6583C872.843 82.9106 871.529 83.6349 870.252 83.2666C869 82.886 868.276 81.5478 868.669 80.2956C869.037 79.031 870.387 78.319 871.64 78.6873Z" fill="#9FCFFF"/>
<path opacity="0.5" d="M948.997 157.174C949.955 157.457 950.495 158.451 950.213 159.421C949.918 160.379 948.924 160.919 947.954 160.624C947.009 160.342 946.468 159.347 946.751 158.377C947.045 157.42 948.064 156.88 948.997 157.174Z" fill="#9FCFFF"/>
<path opacity="0.5" d="M874.586 35.8706C876.023 36.3003 876.845 37.8227 876.416 39.2591C875.986 40.6955 874.464 41.5303 873.027 41.1006C871.591 40.6709 870.768 39.1363 871.198 37.6999C871.64 36.2758 873.15 35.4409 874.586 35.8706Z" fill="#9FCFFF"/>
<path opacity="0.5" d="M946.529 126.502C947.56 126.808 948.162 127.926 947.843 128.969C947.536 130.013 946.431 130.614 945.375 130.295C944.331 129.988 943.73 128.871 944.049 127.827C944.368 126.784 945.473 126.182 946.529 126.502Z" fill="#9FCFFF"/>
<path opacity="0.5" d="M701.073 172.928C702.423 173.333 703.197 174.77 702.804 176.12C702.399 177.471 700.962 178.256 699.599 177.839C698.249 177.446 697.476 176.01 697.881 174.659C698.286 173.297 699.71 172.523 701.073 172.928Z" fill="#9FCFFF"/>
<path opacity="0.5" d="M704.142 185.735C705.493 186.14 706.266 187.577 705.874 188.927C705.468 190.278 704.032 191.063 702.669 190.646C701.319 190.253 700.545 188.817 700.95 187.466C701.356 186.104 702.78 185.33 704.142 185.735Z" fill="#9FCFFF"/>
<path opacity="0.5" d="M696.247 82.9726C697.364 83.3041 698.015 84.5072 697.684 85.6245C697.34 86.7539 696.149 87.4046 695.007 87.0731C693.89 86.7294 693.239 85.5385 693.583 84.409C693.927 83.2673 695.118 82.6289 696.247 82.9726Z" fill="#9FCFFF"/>
<path opacity="0.5" d="M691.262 217.304C692.441 217.66 693.103 218.888 692.747 220.067C692.391 221.221 691.164 221.896 689.997 221.552C688.831 221.208 688.156 219.968 688.512 218.79C688.868 217.624 690.096 216.961 691.262 217.304Z" fill="#9FCFFF"/>
<path opacity="0.5" d="M812.799 136.865C814.088 137.258 814.849 138.633 814.456 139.934C814.064 141.236 812.689 141.984 811.387 141.592C810.086 141.211 809.337 139.824 809.742 138.522C810.123 137.221 811.485 136.484 812.799 136.865Z" fill="#9FCFFF"/>
<path opacity="0.5" d="M841.176 225.814C842.563 226.231 843.373 227.717 842.956 229.116C842.538 230.516 841.053 231.326 839.641 230.896C838.241 230.467 837.431 228.981 837.849 227.582C838.278 226.182 839.752 225.384 841.176 225.814Z" fill="#9FCFFF"/>
<path opacity="0.5" d="M866.409 298.554C867.612 298.923 868.312 300.212 867.943 301.427C867.575 302.642 866.286 303.342 865.07 302.962C863.855 302.593 863.155 301.304 863.524 300.101C863.904 298.886 865.181 298.186 866.409 298.554Z" fill="#9FCFFF"/>
<path opacity="0.5" d="M860.503 281.818C862 282.285 862.86 283.868 862.406 285.378C861.951 286.876 860.355 287.736 858.857 287.294C857.36 286.852 856.488 285.243 856.93 283.746C857.384 282.235 858.968 281.376 860.503 281.818Z" fill="#9FCFFF"/>
<path opacity="0.5" d="M875.324 299.23C876.171 299.487 876.649 300.384 876.404 301.231C876.146 302.09 875.25 302.569 874.39 302.311C873.556 302.066 873.065 301.169 873.335 300.31C873.58 299.463 874.476 298.984 875.324 299.23Z" fill="#9FCFFF"/>
<path opacity="0.5" d="M868.619 283.255C869.65 283.574 870.227 284.654 869.92 285.685C869.614 286.704 868.533 287.294 867.49 286.987C866.471 286.68 865.881 285.6 866.188 284.556C866.507 283.537 867.588 282.96 868.619 283.255Z" fill="#9FCFFF"/>
<path opacity="0.5" d="M926.048 235.133C927.533 235.575 928.38 237.135 927.938 238.608C927.496 240.093 925.925 240.953 924.452 240.511C922.978 240.069 922.131 238.485 922.549 237.012C923.003 235.526 924.575 234.692 926.048 235.133Z" fill="#9FCFFF"/>
<path opacity="0.5" d="M852.706 209.065C853.492 209.299 853.934 210.121 853.7 210.907C853.467 211.693 852.645 212.135 851.859 211.901C851.061 211.668 850.619 210.845 850.852 210.06C851.098 209.274 851.92 208.82 852.706 209.065Z" fill="#9FCFFF"/>
<path opacity="0.5" d="M754.425 52.4963C755.567 52.84 756.23 54.0432 755.874 55.1972C755.542 56.339 754.327 57.0019 753.173 56.6582C752.031 56.3144 751.368 55.099 751.724 53.9572C752.068 52.8032 753.271 52.1525 754.425 52.4963Z" fill="#9FCFFF"/>
<path opacity="0.5" d="M925.9 424.684C927.005 425.003 927.656 426.169 927.312 427.286C926.981 428.391 925.814 429.03 924.697 428.686C923.605 428.354 922.954 427.2 923.298 426.083C923.629 424.978 924.808 424.34 925.9 424.684Z" fill="#9FCFFF"/>
<path opacity="0.5" d="M855.002 257.297C856.315 257.69 857.077 259.102 856.684 260.428C856.291 261.729 854.891 262.502 853.578 262.109C852.252 261.717 851.478 260.305 851.896 258.991C852.289 257.665 853.664 256.904 855.002 257.297Z" fill="#9FCFFF"/>
<path opacity="0.5" d="M860.601 271.823C861.718 272.154 862.369 273.333 862.013 274.463C861.681 275.58 860.515 276.23 859.385 275.874C858.268 275.543 857.617 274.377 857.961 273.235C858.305 272.13 859.471 271.492 860.601 271.823Z" fill="#9FCFFF"/>
<path opacity="0.5" d="M907.58 373.087C908.796 373.456 909.508 374.733 909.127 375.96C908.759 377.176 907.482 377.875 906.254 377.507C905.039 377.151 904.339 375.862 904.72 374.647C905.1 373.419 906.365 372.731 907.58 373.087Z" fill="#9FCFFF"/>
<path opacity="0.5" d="M780.137 210.109C781.475 210.514 782.261 211.963 781.868 213.313C781.451 214.664 780.002 215.462 778.651 215.032C777.289 214.627 776.515 213.178 776.92 211.828C777.326 210.477 778.75 209.691 780.137 210.109Z" fill="#9FCFFF"/>
<path opacity="0.5" d="M1267.41 214.173C1268.58 214.517 1269.24 215.745 1268.9 216.911C1268.56 218.065 1267.33 218.74 1266.16 218.384C1265.01 218.041 1264.33 216.801 1264.68 215.647C1265.03 214.492 1266.25 213.83 1267.41 214.173Z" fill="#9FCFFF"/>
<path opacity="0.5" d="M1201.29 247.154C1202.62 247.547 1203.39 248.971 1203 250.31C1202.59 251.66 1201.17 252.434 1199.84 252.028C1198.48 251.623 1197.72 250.211 1198.11 248.861C1198.52 247.51 1199.94 246.749 1201.29 247.154Z" fill="#9FCFFF"/>
<path opacity="0.5" d="M837.32 94.0974C838.204 94.3675 838.708 95.3006 838.45 96.1968C838.18 97.0807 837.247 97.5841 836.35 97.3263C835.466 97.0562 834.951 96.1232 835.221 95.2269C835.503 94.3307 836.436 93.8151 837.32 94.0974Z" fill="#9FCFFF"/>
<path opacity="0.5" d="M849.157 156.192C850.434 156.56 851.171 157.923 850.79 159.212C850.397 160.501 849.047 161.238 847.758 160.845C846.468 160.452 845.732 159.089 846.112 157.813C846.505 156.536 847.88 155.799 849.157 156.192Z" fill="#9FCFFF"/>
<path opacity="0.5" d="M908.894 128.601C909.95 128.92 910.539 130.038 910.233 131.093C909.926 132.149 908.808 132.751 907.74 132.432C906.684 132.125 906.071 131.007 906.402 129.939C906.721 128.896 907.826 128.294 908.894 128.601Z" fill="#9FCFFF"/>
<path opacity="0.5" d="M696.738 18.1521C697.77 18.459 698.371 19.5517 698.052 20.5952C697.745 21.6265 696.652 22.2158 695.609 21.8966C694.578 21.5897 693.988 20.5093 694.308 19.4657C694.627 18.4345 695.707 17.8452 696.738 18.1521Z" fill="#9FCFFF"/>
<path opacity="0.5" d="M699.784 3.04903C700.618 3.29457 701.085 4.16622 700.839 5.01333C700.594 5.84817 699.722 6.3147 698.875 6.06916C698.04 5.82362 697.574 4.93968 697.819 4.10485C698.089 3.27001 698.973 2.80349 699.784 3.04903Z" fill="#9FCFFF"/>
<path opacity="0.5" d="M1260.26 375.199C1261.35 375.519 1262 376.685 1261.66 377.802C1261.32 378.907 1260.16 379.545 1259.04 379.202C1257.94 378.87 1257.3 377.716 1257.64 376.599C1257.99 375.506 1259.15 374.856 1260.26 375.199Z" fill="#9FCFFF"/>
<path opacity="0.5" d="M1311.83 429.19C1312.95 429.534 1313.6 430.725 1313.25 431.842C1312.91 432.959 1311.74 433.61 1310.6 433.254C1309.48 432.922 1308.86 431.744 1309.19 430.614C1309.52 429.497 1310.7 428.871 1311.83 429.19Z" fill="#9FCFFF"/>
<path opacity="0.5" d="M1163.23 256.965C1164.62 257.371 1165.39 258.832 1164.98 260.207C1164.57 261.594 1163.11 262.367 1161.73 261.962C1160.36 261.557 1159.57 260.096 1159.99 258.721C1160.39 257.346 1161.85 256.548 1163.23 256.965Z" fill="#9FCFFF"/>
<path opacity="0.5" d="M1218.54 320.632C1219.8 321 1220.5 322.314 1220.12 323.554C1219.75 324.782 1218.43 325.506 1217.19 325.138C1215.97 324.769 1215.25 323.456 1215.63 322.203C1216.02 320.963 1217.32 320.264 1218.54 320.632Z" fill="#9FCFFF"/>
<path opacity="0.5" d="M1029.01 -4.0237C1030.27 -3.64311 1030.98 -2.31719 1030.59 -1.06494C1030.22 0.187312 1028.88 0.911659 1027.63 0.531072C1026.38 0.150485 1025.66 -1.17543 1026.05 -2.42769C1026.42 -3.69222 1027.75 -4.39201 1029.01 -4.0237Z" fill="#9FCFFF"/>
<path opacity="0.5" d="M1201.43 199.389C1202.25 199.635 1202.72 200.494 1202.47 201.329C1202.23 202.152 1201.35 202.618 1200.52 202.373C1199.7 202.127 1199.23 201.268 1199.48 200.421C1199.73 199.61 1200.61 199.132 1201.43 199.389Z" fill="#9FCFFF"/>
<path opacity="0.5" d="M1195.13 203.969C1196.04 204.24 1196.57 205.197 1196.28 206.118C1196.01 207.039 1195.06 207.567 1194.13 207.284C1193.21 207.014 1192.69 206.044 1192.97 205.123C1193.25 204.215 1194.21 203.687 1195.13 203.969Z" fill="#9FCFFF"/>
<path opacity="0.5" d="M770.572 196.123C771.959 196.541 772.757 198.014 772.34 199.389C771.922 200.776 770.461 201.574 769.074 201.157C767.687 200.752 766.889 199.266 767.306 197.891C767.736 196.504 769.184 195.706 770.572 196.123Z" fill="#9FCFFF"/>
<path opacity="0.5" d="M789.174 38.0071C790.476 38.4 791.237 39.7873 790.832 41.1009C790.451 42.4145 789.051 43.1757 787.738 42.7829C786.436 42.39 785.663 40.9904 786.056 39.6768C786.461 38.3631 787.848 37.6143 789.174 38.0071Z" fill="#9FCFFF"/>
<path opacity="0.5" d="M1074.38 142.955C1075.81 143.373 1076.62 144.883 1076.19 146.307C1075.78 147.731 1074.28 148.554 1072.84 148.124C1071.42 147.694 1070.6 146.184 1071.03 144.76C1071.46 143.324 1072.95 142.513 1074.38 142.955Z" fill="#9FCFFF"/>
<path opacity="0.5" d="M964.788 99.758C965.721 100.04 966.249 101.023 965.979 101.968C965.696 102.901 964.702 103.441 963.757 103.159C962.823 102.876 962.308 101.894 962.578 100.949C962.86 100.004 963.855 99.4757 964.788 99.758Z" fill="#9FCFFF"/>
<path opacity="0.5" d="M964.383 85.9687C965.881 86.4107 966.728 87.9821 966.286 89.4676C965.844 90.9654 964.26 91.8125 962.774 91.3706C961.289 90.9286 960.417 89.3449 960.872 87.8594C961.326 86.3616 962.897 85.5144 964.383 85.9687Z" fill="#9FCFFF"/>
<path opacity="0.5" d="M895.719 286.901C896.591 287.159 897.082 288.08 896.824 288.952C896.566 289.811 895.645 290.302 894.786 290.044C893.914 289.787 893.411 288.878 893.681 288.006C893.951 287.135 894.847 286.644 895.719 286.901Z" fill="#9FCFFF"/>
<path opacity="0.5" d="M760.97 153.307C762.246 153.675 762.983 155.038 762.59 156.314C762.222 157.579 760.859 158.316 759.594 157.935C758.318 157.554 757.581 156.192 757.962 154.927C758.354 153.638 759.693 152.914 760.97 153.307Z" fill="#9FCFFF"/>
<path opacity="0.5" d="M785.245 62.872C786.313 63.1912 786.927 64.3084 786.596 65.3765C786.276 66.4323 785.159 67.0462 784.091 66.7147C783.035 66.4078 782.409 65.2905 782.741 64.2102C783.06 63.1543 784.189 62.5528 785.245 62.872Z" fill="#9FCFFF"/>
<path opacity="0.5" d="M1049.72 57.0517C1050.79 57.3709 1051.4 58.4881 1051.08 59.5685C1050.75 60.6243 1049.64 61.2382 1048.56 60.919C1047.51 60.5998 1046.89 59.4825 1047.22 58.4021C1047.54 57.3463 1048.65 56.7325 1049.72 57.0517Z" fill="#9FCFFF"/>
<path opacity="0.5" d="M889.407 287.712C890.93 288.166 891.801 289.774 891.347 291.297C890.893 292.819 889.285 293.691 887.762 293.237C886.24 292.782 885.368 291.162 885.823 289.652C886.264 288.117 887.873 287.245 889.407 287.712Z" fill="#9FCFFF"/>
<path opacity="0.5" d="M1373.63 108.316C1374.59 108.611 1375.15 109.63 1374.83 110.6C1374.56 111.57 1373.54 112.135 1372.56 111.828C1371.6 111.545 1371.05 110.526 1371.33 109.544C1371.63 108.574 1372.66 108.034 1373.63 108.316Z" fill="#9FCFFF"/>
<path opacity="0.5" d="M750.631 109.151C751.625 109.446 752.19 110.489 751.895 111.496C751.601 112.478 750.545 113.043 749.55 112.748C748.568 112.454 747.979 111.41 748.286 110.404C748.593 109.409 749.636 108.844 750.631 109.151Z" fill="#9FCFFF"/>
<path opacity="0.5" d="M819.405 153.012C820.621 153.38 821.333 154.669 820.952 155.897C820.584 157.125 819.282 157.824 818.067 157.444C816.839 157.075 816.14 155.799 816.496 154.559C816.876 153.331 818.165 152.643 819.405 153.012Z" fill="#9FCFFF"/>
<path opacity="0.5" d="M796.652 120.767C797.561 121.037 798.089 122.007 797.831 122.928C797.536 123.849 796.579 124.364 795.646 124.094C794.737 123.812 794.209 122.854 794.492 121.921C794.749 121.013 795.719 120.485 796.652 120.767Z" fill="#9FCFFF"/>
<path opacity="0.5" d="M1001.48 430.332C1002.75 430.725 1003.5 432.088 1003.11 433.364C1002.73 434.641 1001.37 435.39 1000.09 434.997C998.801 434.617 998.064 433.254 998.457 431.977C998.838 430.676 1000.19 429.951 1001.48 430.332Z" fill="#9FCFFF"/>
<path opacity="0.5" d="M843.287 73.6652C844.687 74.0826 845.485 75.5559 845.068 76.9677C844.65 78.3673 843.165 79.1776 841.765 78.7602C840.365 78.3305 839.567 76.845 839.985 75.4576C840.402 74.0458 841.888 73.2478 843.287 73.6652Z" fill="#9FCFFF"/>
<path opacity="0.5" d="M1079.6 627.532C1080.47 627.79 1080.98 628.723 1080.71 629.607C1080.44 630.491 1079.54 630.994 1078.64 630.724C1077.75 630.454 1077.26 629.533 1077.52 628.649C1077.78 627.765 1078.72 627.274 1079.6 627.532Z" fill="#9FCFFF"/>
<path opacity="0.5" d="M1112.1 24.7212C1113.45 25.1386 1114.26 26.5996 1113.84 27.9746C1113.44 29.3619 1111.98 30.1476 1110.59 29.7425C1109.21 29.3251 1108.42 27.8641 1108.83 26.4891C1109.25 25.1018 1110.71 24.3161 1112.1 24.7212Z" fill="#9FCFFF"/>
<path opacity="0.5" d="M1102.3 19.2939C1102.02 20.2392 1101.04 20.7672 1100.08 20.4848C1099.14 20.2147 1098.59 19.2202 1098.89 18.2749" fill="#9FCFFF"/>
<path opacity="0.5" d="M1014.03 -1.67847C1014.85 -1.43293 1015.32 -0.561267 1015.07 0.273569C1014.82 1.09613 1013.95 1.57494 1013.12 1.31712C1012.28 1.07158 1011.82 0.199919 1012.06 -0.634917C1012.31 -1.45748 1013.18 -1.93629 1014.03 -1.67847Z" fill="#9FCFFF"/>
<path opacity="0.5" d="M1148.59 41.9855C1149.39 42.2311 1149.83 43.0659 1149.6 43.8639C1149.37 44.6619 1148.53 45.1039 1147.72 44.8706C1146.93 44.6374 1146.48 43.8025 1146.71 42.9923C1146.96 42.2065 1147.79 41.7523 1148.59 41.9855Z" fill="#9FCFFF"/>
<path opacity="0.5" d="M1005.81 43.2134C1006.88 43.5326 1007.49 44.6621 1007.16 45.7424C1006.84 46.8105 1005.73 47.4244 1004.65 47.0929C1003.58 46.7737 1002.95 45.6565 1003.27 44.5761C1003.6 43.508 1004.74 42.8942 1005.81 43.2134Z" fill="#9FCFFF"/>
<path opacity="0.5" d="M840.771 36.4476C841.974 36.7914 842.637 38.0436 842.293 39.2345C841.937 40.4254 840.672 41.1006 839.494 40.7446C838.315 40.3886 837.628 39.124 837.996 37.9454C838.352 36.7668 839.592 36.0916 840.771 36.4476Z" fill="#9FCFFF"/>
<path opacity="0.5" d="M1069.43 50.1387C1070.31 50.4088 1070.82 51.3541 1070.55 52.2503C1070.28 53.1466 1069.34 53.6499 1068.43 53.3921C1067.54 53.122 1067.04 52.1767 1067.31 51.2804C1067.58 50.3842 1068.52 49.8809 1069.43 50.1387Z" fill="#9FCFFF"/>
<path opacity="0.5" d="M1223.78 144.883C1224.63 145.141 1225.13 146.049 1224.87 146.921C1224.61 147.78 1223.71 148.272 1222.84 148.001C1221.98 147.756 1221.5 146.847 1221.75 145.976C1222.02 145.129 1222.93 144.625 1223.78 144.883Z" fill="#9FCFFF"/>
<path opacity="0.5" d="M997.659 29.2891C998.752 29.6206 999.39 30.7869 999.058 31.9041C998.727 33.0213 997.561 33.6474 996.431 33.3159C995.326 32.9845 994.688 31.8181 995.032 30.7009C995.375 29.5837 996.542 28.9576 997.659 29.2891Z" fill="#9FCFFF"/>
<path opacity="0.5" d="M1051.96 17.1943C1052.89 17.4644 1053.42 18.4588 1053.13 19.4041C1052.86 20.3372 1051.87 20.8651 1050.93 20.5827C1050 20.3004 1049.46 19.3182 1049.75 18.3729C1050.05 17.4398 1051.02 16.9119 1051.96 17.1943Z" fill="#9FCFFF"/>
<path opacity="0.5" d="M924.182 103.405C925.336 103.749 926.011 104.989 925.655 106.143C925.311 107.309 924.083 107.972 922.917 107.616C921.763 107.272 921.088 106.044 921.444 104.878C921.8 103.724 923.015 103.049 924.182 103.405Z" fill="#9FCFFF"/>
<path opacity="0.5" d="M989.813 18.8765C991.126 19.2571 991.863 20.6199 991.47 21.9335C991.089 23.2349 989.714 23.9715 988.413 23.5786C987.112 23.1858 986.375 21.8108 986.768 20.5217C987.161 19.2203 988.523 18.4837 989.813 18.8765Z" fill="#9FCFFF"/>
<path opacity="0.5" d="M947.34 -1.07688C948.678 -0.684019 949.464 0.752392 949.058 2.09058C948.653 3.42878 947.229 4.20222 945.879 3.80936C944.541 3.40421 943.767 1.98009 944.172 0.629619C944.565 -0.72085 945.989 -1.48202 947.34 -1.07688Z" fill="#9FCFFF"/>
<path opacity="0.5" d="M1085.61 21.0253C1086.87 21.4059 1087.59 22.7195 1087.21 23.9841C1086.83 25.2363 1085.51 25.9607 1084.25 25.5923C1083 25.2118 1082.27 23.8859 1082.65 22.6336C1083.03 21.3691 1084.35 20.657 1085.61 21.0253Z" fill="#9FCFFF"/>
<path opacity="0.5" d="M1020.49 26.2684C1021.93 26.6981 1022.77 28.2327 1022.34 29.6814C1021.91 31.1424 1020.37 31.9649 1018.91 31.5352C1017.46 31.0933 1016.63 29.5586 1017.07 28.1099C1017.5 26.6613 1019.02 25.8387 1020.49 26.2684Z" fill="#9FCFFF"/>
<path opacity="0.5" d="M1137.71 25.028C1137.39 26.1698 1136.18 26.8327 1135.02 26.4767C1133.87 26.1329 1133.22 24.9175 1133.56 23.7758" fill="#9FCFFF"/>
<path opacity="0.5" d="M924.93 18.1029C926.06 18.4467 926.711 19.6252 926.367 20.767C926.035 21.8965 924.832 22.5594 923.703 22.2034C922.561 21.8719 921.935 20.6688 922.266 19.5393C922.598 18.4098 923.789 17.7714 924.93 18.1029Z" fill="#9FCFFF"/>
<path opacity="0.5" d="M716.139 142.71C717.207 143.029 717.833 144.171 717.502 145.251C717.183 146.331 716.041 146.945 714.961 146.626C713.88 146.307 713.254 145.153 713.598 144.085C713.929 142.992 715.059 142.378 716.139 142.71Z" fill="#9FCFFF"/>
<path opacity="0.5" d="M737.345 7.0764C738.708 7.48154 739.481 8.91793 739.076 10.2807C738.671 11.6311 737.234 12.4169 735.872 12.0117C734.521 11.6066 733.735 10.1702 734.141 8.80746C734.546 7.44472 736.007 6.67126 737.345 7.0764Z" fill="#9FCFFF"/>
<path opacity="0.5" d="M1036.07 62.0493C1037.11 62.3562 1037.71 63.4612 1037.39 64.517C1037.09 65.5728 1035.98 66.1744 1034.91 65.8552C1033.87 65.536 1033.28 64.4311 1033.59 63.3753C1033.92 62.3194 1035.02 61.7301 1036.07 62.0493Z" fill="#9FCFFF"/>
<path opacity="0.5" d="M948.739 177.815C950.028 178.208 950.777 179.583 950.385 180.872C949.992 182.174 948.617 182.91 947.328 182.53C946.038 182.137 945.29 180.774 945.695 179.473C946.075 178.171 947.45 177.435 948.739 177.815Z" fill="#9FCFFF"/>
<path opacity="0.5" d="M1108.54 103.552C1109.99 103.994 1110.82 105.529 1110.38 106.977C1109.95 108.438 1108.4 109.261 1106.95 108.819C1105.52 108.389 1104.68 106.855 1105.11 105.406C1105.57 103.945 1107.09 103.11 1108.54 103.552Z" fill="#9FCFFF"/>
<path opacity="0.5" d="M815.537 19.7728C816.52 20.0675 817.072 21.0988 816.777 22.0932C816.483 23.0631 815.452 23.6401 814.469 23.3331C813.487 23.0385 812.935 22.0072 813.229 21.0128C813.512 20.0306 814.543 19.4782 815.537 19.7728Z" fill="#9FCFFF"/>
<path opacity="0.5" d="M996.824 170.657C997.757 170.939 998.273 171.921 998.003 172.867C997.72 173.8 996.738 174.34 995.805 174.045C994.86 173.775 994.332 172.793 994.614 171.848C994.909 170.914 995.891 170.362 996.824 170.657Z" fill="#9FCFFF"/>
<path opacity="0.5" d="M986.448 455.062C987.418 455.344 987.971 456.363 987.676 457.345C987.381 458.303 986.375 458.843 985.392 458.561C984.435 458.278 983.882 457.247 984.177 456.277C984.459 455.32 985.491 454.779 986.448 455.062Z" fill="#9FCFFF"/>
<path opacity="0.5" d="M1152.07 70.399C1152.9 70.6445 1153.37 71.5284 1153.11 72.3756C1152.86 73.2227 1151.98 73.6892 1151.12 73.4436C1150.29 73.1981 1149.81 72.3142 1150.07 71.4548C1150.31 70.6199 1151.19 70.1412 1152.07 70.399Z" fill="#9FCFFF"/>
<path opacity="0.5" d="M1323.63 255.59C1324.49 255.836 1324.97 256.744 1324.71 257.604C1324.45 258.451 1323.55 258.942 1322.7 258.684C1321.84 258.426 1321.36 257.53 1321.61 256.671C1321.87 255.811 1322.78 255.32 1323.63 255.59Z" fill="#9FCFFF"/>
<path opacity="0.5" d="M1298.42 86.8405C1299.48 87.1597 1300.08 88.2647 1299.76 89.3328C1299.44 90.3763 1298.33 90.9779 1297.28 90.6587C1296.22 90.3518 1295.61 89.2468 1295.95 88.1787C1296.27 87.1229 1297.38 86.5336 1298.42 86.8405Z" fill="#9FCFFF"/>
<path opacity="0.5" d="M1338.72 91.4942C1339.6 91.752 1340.09 92.6728 1339.84 93.569C1339.57 94.453 1338.66 94.9563 1337.75 94.6862C1336.88 94.4284 1336.39 93.4953 1336.63 92.5991C1336.9 91.7275 1337.85 91.2241 1338.72 91.4942Z" fill="#9FCFFF"/>
<path opacity="0.5" d="M1301.03 124.144C1302.27 124.512 1303 125.838 1302.63 127.078C1302.25 128.33 1300.94 129.042 1299.68 128.662C1298.44 128.281 1297.73 126.968 1298.1 125.728C1298.47 124.475 1299.79 123.776 1301.03 124.144Z" fill="#9FCFFF"/>
<path opacity="0.5" d="M1355.28 112.516C1356.6 112.909 1357.36 114.308 1356.95 115.622C1356.57 116.936 1355.17 117.697 1353.86 117.304C1352.55 116.911 1351.8 115.511 1352.19 114.198C1352.58 112.872 1353.97 112.123 1355.28 112.516Z" fill="#9FCFFF"/>
<path opacity="0.5" d="M1220.89 49.7088C1220.53 50.8751 1219.28 51.5504 1218.1 51.1943C1216.95 50.8383 1216.27 49.6106 1216.63 48.432" fill="#9FCFFF"/>
<path opacity="0.5" d="M1317.87 198.247C1318.73 198.518 1319.22 199.414 1318.96 200.285C1318.7 201.145 1317.8 201.636 1316.92 201.378C1316.06 201.12 1315.57 200.224 1315.83 199.352C1316.1 198.493 1317.01 198.002 1317.87 198.247Z" fill="#9FCFFF"/>
<path opacity="0.5" d="M1393.23 198.518C1394.13 198.788 1394.62 199.745 1394.35 200.642C1394.08 201.55 1393.14 202.053 1392.23 201.796C1391.35 201.525 1390.83 200.568 1391.1 199.672C1391.37 198.763 1392.32 198.26 1393.23 198.518Z" fill="#9FCFFF"/>
<path opacity="0.5" d="M848.236 197.327C849.39 197.683 850.065 198.91 849.709 200.077C849.353 201.243 848.125 201.918 846.959 201.55C845.793 201.206 845.13 199.978 845.474 198.812C845.83 197.633 847.057 196.97 848.236 197.327Z" fill="#9FCFFF"/>
<path opacity="0.5" d="M1008.91 438.706C1009.78 438.976 1010.28 439.885 1010.01 440.781C1009.75 441.64 1008.83 442.131 1007.95 441.886C1007.08 441.616 1006.59 440.707 1006.84 439.811C1007.1 438.952 1008.03 438.448 1008.91 438.706Z" fill="#9FCFFF"/>
<path opacity="0.5" d="M936.24 331.449C937.222 331.744 937.786 332.775 937.504 333.77C937.197 334.752 936.166 335.317 935.159 335.022C934.189 334.727 933.625 333.696 933.931 332.702C934.226 331.72 935.27 331.155 936.24 331.449Z" fill="#9FCFFF"/>
<path opacity="0.5" d="M984.496 368.741C985.932 369.17 986.755 370.693 986.325 372.142C985.895 373.578 984.373 374.413 982.936 373.971C981.5 373.541 980.665 372.019 981.095 370.57C981.525 369.146 983.059 368.311 984.496 368.741Z" fill="#9FCFFF"/>
<path opacity="0.5" d="M975.422 383.218C976.269 383.463 976.748 384.347 976.49 385.206C976.244 386.054 975.36 386.52 974.513 386.274C973.679 386.029 973.187 385.145 973.433 384.286C973.703 383.439 974.575 382.972 975.422 383.218Z" fill="#9FCFFF"/>
<path opacity="0.5" d="M691.704 158.095C693.189 158.537 694.024 160.096 693.582 161.557C693.14 163.018 691.581 163.865 690.12 163.423C688.659 162.994 687.812 161.435 688.254 159.974C688.696 158.488 690.231 157.653 691.704 158.095Z" fill="#9FCFFF"/>
<path opacity="0.5" d="M1070.02 26.4403C1071.41 26.8577 1072.2 28.3309 1071.79 29.7182C1071.37 31.1055 1069.9 31.9035 1068.51 31.4861C1067.12 31.0687 1066.32 29.5955 1066.74 28.2082C1067.16 26.8209 1068.63 26.0228 1070.02 26.4403Z" fill="#9FCFFF"/>
<path opacity="0.5" d="M1057.43 166.961C1058.29 167.218 1058.77 168.115 1058.51 168.986C1058.26 169.821 1057.36 170.312 1056.5 170.067C1055.65 169.797 1055.17 168.913 1055.42 168.041C1055.69 167.194 1056.59 166.715 1057.43 166.961Z" fill="#9FCFFF"/>
<path opacity="0.5" d="M1264.17 135.772C1265.44 136.165 1266.19 137.516 1265.81 138.805C1265.43 140.094 1264.06 140.83 1262.77 140.45C1261.51 140.069 1260.75 138.706 1261.14 137.417C1261.52 136.116 1262.87 135.379 1264.17 135.772Z" fill="#9FCFFF"/>
<path opacity="0.5" d="M1270.8 162.995C1271.6 163.228 1272.06 164.063 1271.81 164.873C1271.58 165.659 1270.74 166.113 1269.93 165.88C1269.13 165.634 1268.69 164.799 1268.93 164.001C1269.17 163.203 1270.02 162.749 1270.8 162.995Z" fill="#9FCFFF"/>
<path opacity="0.5" d="M1061.02 578.784C1062.05 579.104 1062.65 580.184 1062.33 581.24C1062.02 582.271 1060.93 582.86 1059.89 582.553C1058.85 582.234 1058.26 581.154 1058.58 580.11C1058.89 579.067 1059.99 578.478 1061.02 578.784Z" fill="#9FCFFF"/>
<path opacity="0.5" d="M1067.33 640.805C1068.19 641.076 1068.67 641.972 1068.42 642.843C1068.16 643.69 1067.26 644.182 1066.38 643.936C1065.54 643.666 1065.05 642.757 1065.3 641.898C1065.57 641.039 1066.47 640.56 1067.33 640.805Z" fill="#9FCFFF"/>
<path opacity="0.5" d="M1032.32 291.015C1033.57 291.396 1034.3 292.734 1033.92 293.986C1033.54 295.238 1032.2 295.975 1030.95 295.57C1029.69 295.201 1028.98 293.876 1029.36 292.611C1029.73 291.359 1031.07 290.647 1032.32 291.015Z" fill="#9FCFFF"/>
<path opacity="0.5" d="M989.677 221.074C990.586 221.344 991.101 222.302 990.831 223.222C990.561 224.131 989.604 224.647 988.683 224.376C987.774 224.106 987.259 223.149 987.529 222.228C987.799 221.32 988.769 220.804 989.677 221.074Z" fill="#9FCFFF"/>
<path opacity="0.5" d="M1052.51 324.401C1053.45 324.684 1053.99 325.678 1053.71 326.636C1053.42 327.581 1052.42 328.121 1051.47 327.839C1050.52 327.557 1049.98 326.55 1050.27 325.605C1050.56 324.647 1051.55 324.107 1052.51 324.401Z" fill="#9FCFFF"/>
<path opacity="0.5" d="M986.399 235.551C987.835 235.981 988.67 237.503 988.228 238.952C987.799 240.388 986.276 241.198 984.84 240.781C983.403 240.339 982.581 238.829 983.011 237.38C983.44 235.944 984.95 235.121 986.399 235.551Z" fill="#9FCFFF"/>
<path opacity="0.5" d="M993.57 254.534C994.564 254.829 995.129 255.885 994.834 256.904C994.539 257.898 993.484 258.463 992.465 258.156C991.47 257.861 990.906 256.805 991.2 255.799C991.495 254.804 992.563 254.239 993.57 254.534Z" fill="#9FCFFF"/>
<path opacity="0.5" d="M1027.9 293.139C1029.04 293.483 1029.69 294.686 1029.35 295.852C1029.01 296.994 1027.8 297.657 1026.65 297.313C1025.51 296.97 1024.86 295.754 1025.2 294.6C1025.54 293.458 1026.76 292.795 1027.9 293.139Z" fill="#9FCFFF"/>
<path opacity="0.5" d="M1380.23 539.32C1381.29 539.639 1381.92 540.769 1381.57 541.837C1381.25 542.905 1380.14 543.519 1379.06 543.187C1377.99 542.868 1377.37 541.751 1377.72 540.67C1378.02 539.615 1379.15 539.001 1380.23 539.32Z" fill="#9FCFFF"/>
<path opacity="0.5" d="M1369.98 217.329C1371.5 217.771 1372.38 219.379 1371.92 220.902C1371.47 222.424 1369.86 223.296 1368.34 222.829C1366.8 222.387 1365.94 220.779 1366.4 219.256C1366.85 217.722 1368.45 216.862 1369.98 217.329Z" fill="#9FCFFF"/>
<path opacity="0.5" d="M1367.17 225.789C1368.45 226.157 1369.17 227.508 1368.78 228.772C1368.4 230.025 1367.06 230.761 1365.79 230.368C1364.53 230 1363.81 228.65 1364.17 227.385C1364.57 226.133 1365.9 225.409 1367.17 225.789Z" fill="#9FCFFF"/>
<path opacity="0.5" d="M1360.07 229.927C1361.1 230.246 1361.71 231.339 1361.39 232.395C1361.08 233.426 1359.96 234.015 1358.92 233.721C1357.89 233.402 1357.29 232.297 1357.62 231.253C1357.91 230.21 1359 229.62 1360.07 229.927Z" fill="#9FCFFF"/>
<path opacity="0.5" d="M1354.29 236.042C1355.33 236.361 1355.93 237.479 1355.61 238.534C1355.32 239.59 1354.18 240.179 1353.13 239.86C1352.08 239.541 1351.48 238.436 1351.8 237.38C1352.12 236.337 1353.23 235.723 1354.29 236.042Z" fill="#9FCFFF"/>
<path opacity="0.5" d="M1247.23 140.831C1248 141.052 1248.43 141.862 1248.21 142.648C1247.98 143.422 1247.17 143.851 1246.38 143.618C1245.62 143.397 1245.18 142.587 1245.41 141.801C1245.66 141.04 1246.47 140.598 1247.23 140.831Z" fill="#9FCFFF"/>
<path opacity="0.5" d="M1114.14 443.077C1115.29 443.421 1115.95 444.624 1115.61 445.791C1115.27 446.945 1114.04 447.62 1112.88 447.276C1111.73 446.932 1111.06 445.692 1111.42 444.538C1111.76 443.372 1112.97 442.721 1114.14 443.077Z" fill="#9FCFFF"/>
<path opacity="0.5" d="M1112.82 437.319C1113.71 437.576 1114.21 438.522 1113.95 439.43C1113.68 440.314 1112.76 440.818 1111.84 440.56C1110.96 440.29 1110.44 439.357 1110.71 438.448C1110.99 437.552 1111.93 437.061 1112.82 437.319Z" fill="#9FCFFF"/>
<path opacity="0.5" d="M1143.46 423.628C1144.99 424.094 1145.85 425.69 1145.4 427.2C1144.94 428.735 1143.34 429.594 1141.83 429.128C1140.32 428.686 1139.44 427.077 1139.91 425.555C1140.35 424.045 1141.95 423.173 1143.46 423.628Z" fill="#9FCFFF"/>
<path opacity="0.5" d="M1128 436.594C1128.81 436.827 1129.26 437.675 1129.03 438.497C1128.79 439.307 1127.93 439.774 1127.1 439.528C1126.29 439.283 1125.84 438.436 1126.07 437.613C1126.33 436.803 1127.19 436.349 1128 436.594Z" fill="#9FCFFF"/>
<path opacity="0.5" d="M772.033 333.304C773.064 333.611 773.666 334.691 773.346 335.735C773.04 336.766 771.947 337.367 770.903 337.048C769.872 336.741 769.283 335.661 769.602 334.617C769.909 333.586 771.002 332.997 772.033 333.304Z" fill="#9FCFFF"/>
<path opacity="0.5" d="M758.981 351.268C759.865 351.538 760.368 352.459 760.098 353.355C759.84 354.226 758.907 354.73 758.011 354.472C757.139 354.202 756.636 353.269 756.906 352.385C757.164 351.513 758.109 350.998 758.981 351.268Z" fill="#9FCFFF"/>
</g>
<path d="M1371.55 68.6431C1370.73 68.2011 1369.69 68.5081 1369.24 69.3307C1368.8 70.1532 1369.11 71.1967 1369.94 71.651C1370.77 72.093 1371.81 71.786 1372.24 70.9512C1372.71 70.1164 1372.39 69.0974 1371.55 68.6431Z" fill="#9FCFFF"/>
<path d="M1435.21 25.9614C1434.02 25.323 1432.57 25.765 1431.93 26.9436C1431.3 28.1099 1431.74 29.5831 1432.91 30.2093C1434.08 30.8354 1435.55 30.4057 1436.19 29.2394C1436.83 28.0485 1436.39 26.5876 1435.21 25.9614Z" fill="#9FCFFF"/>
<path d="M1351.06 93.1766C1350.18 92.6978 1349.09 93.017 1348.6 93.9009C1348.14 94.7848 1348.46 95.8775 1349.34 96.3563C1350.21 96.8228 1351.3 96.5036 1351.78 95.6197C1352.27 94.7357 1351.93 93.6308 1351.06 93.1766Z" fill="#9FCFFF"/>
<path d="M1374.5 73.2232C1373.55 72.7076 1372.34 73.0636 1371.82 74.0335C1371.3 74.9911 1371.66 76.2065 1372.62 76.7222C1373.58 77.2501 1374.79 76.8818 1375.31 75.9242C1375.83 74.9543 1375.47 73.7511 1374.5 73.2232Z" fill="#9FCFFF"/>
<path d="M1378.77 217.955C1377.5 217.268 1375.88 217.746 1375.18 219.035C1374.48 220.325 1374.95 221.933 1376.26 222.645C1377.56 223.332 1379.17 222.854 1379.87 221.565C1380.57 220.263 1380.09 218.655 1378.77 217.955Z" fill="#9FCFFF"/>
<path d="M1309.48 251.538C1308.37 250.949 1306.98 251.366 1306.36 252.483C1305.76 253.613 1306.18 255 1307.31 255.602C1308.43 256.203 1309.83 255.786 1310.43 254.681C1311.04 253.552 1310.61 252.152 1309.48 251.538Z" fill="#9FCFFF"/>
<path d="M1325.51 243.888C1324.11 243.152 1322.4 243.667 1321.65 245.067C1320.92 246.454 1321.43 248.173 1322.81 248.922C1324.18 249.671 1325.92 249.155 1326.67 247.768C1327.41 246.393 1326.89 244.662 1325.51 243.888Z" fill="#9FCFFF"/>
<path d="M1302.72 245.718C1301.93 245.301 1300.96 245.595 1300.54 246.369C1300.11 247.167 1300.41 248.137 1301.19 248.554C1301.97 248.971 1302.95 248.689 1303.36 247.891C1303.79 247.118 1303.49 246.135 1302.72 245.718Z" fill="#9FCFFF"/>
<path d="M1318.75 239.161C1317.8 238.658 1316.62 239.014 1316.11 239.959C1315.61 240.904 1315.95 242.083 1316.91 242.598C1317.86 243.102 1319.04 242.758 1319.55 241.8C1320.05 240.855 1319.69 239.677 1318.75 239.161Z" fill="#9FCFFF"/>
<path d="M1312.17 164.517C1310.81 163.781 1309.11 164.284 1308.38 165.647C1307.64 167.009 1308.14 168.728 1309.51 169.452C1310.87 170.189 1312.58 169.661 1313.33 168.323C1314.04 166.96 1313.53 165.254 1312.17 164.517Z" fill="#9FCFFF"/>
<path d="M1382.47 197.953C1381.74 197.56 1380.85 197.83 1380.47 198.542C1380.07 199.266 1380.34 200.163 1381.06 200.543C1381.79 200.948 1382.69 200.678 1383.07 199.954C1383.45 199.242 1383.19 198.346 1382.47 197.953Z" fill="#9FCFFF"/>
<path d="M1178.24 298.665C1177.24 298.112 1175.95 298.481 1175.41 299.5C1174.86 300.519 1175.25 301.796 1176.27 302.336C1177.28 302.876 1178.55 302.508 1179.1 301.489C1179.63 300.47 1179.26 299.193 1178.24 298.665Z" fill="#9FCFFF"/>
<path d="M1346.74 230.43C1345.52 229.78 1344 230.234 1343.34 231.462C1342.7 232.665 1343.14 234.187 1344.34 234.838C1345.57 235.501 1347.09 235.047 1347.73 233.819C1348.39 232.616 1347.95 231.093 1346.74 230.43Z" fill="#9FCFFF"/>
<path d="M1332.51 236.754C1331.47 236.202 1330.19 236.582 1329.63 237.614C1329.08 238.645 1329.45 239.922 1330.49 240.474C1331.52 241.027 1332.8 240.658 1333.36 239.615C1333.9 238.596 1333.54 237.307 1332.51 236.754Z" fill="#9FCFFF"/>
<path d="M1227.68 275.126C1226.56 274.524 1225.15 274.93 1224.55 276.059C1223.95 277.189 1224.37 278.576 1225.49 279.177C1226.61 279.791 1228 279.374 1228.61 278.244C1229.2 277.127 1228.8 275.74 1227.68 275.126Z" fill="#9FCFFF"/>
<path d="M1433.05 250.003C1431.81 249.34 1430.23 249.807 1429.56 251.047C1428.9 252.299 1429.36 253.883 1430.61 254.546C1431.87 255.221 1433.43 254.742 1434.1 253.502C1434.76 252.262 1434.31 250.691 1433.05 250.003Z" fill="#9FCFFF"/>
<path d="M1422.36 163.081C1421.2 162.43 1419.72 162.884 1419.07 164.063C1418.43 165.254 1418.88 166.727 1420.05 167.365C1421.25 168.004 1422.72 167.562 1423.36 166.383C1423.98 165.192 1423.54 163.707 1422.36 163.081Z" fill="#9FCFFF"/>
<path d="M1399.62 101.33C1398.65 100.802 1397.44 101.182 1396.91 102.14C1396.38 103.11 1396.75 104.325 1397.72 104.853C1398.69 105.381 1399.9 105.025 1400.43 104.043C1400.96 103.073 1400.59 101.87 1399.62 101.33Z" fill="#9FCFFF"/>
<path d="M976.797 27.2508C975.79 26.6983 974.513 27.0789 973.961 28.0979C973.408 29.1169 973.789 30.3937 974.82 30.9339C975.839 31.4863 977.104 31.1057 977.656 30.0867C978.196 29.0678 977.828 27.791 976.797 27.2508Z" fill="#9FCFFF"/>
<path d="M902.165 28.9576C901.134 28.4051 899.833 28.7979 899.28 29.8169C898.728 30.8482 899.108 32.1373 900.152 32.6897C901.183 33.2422 902.46 32.8494 903.025 31.8304C903.577 30.8114 903.184 29.5346 902.165 28.9576Z" fill="#9FCFFF"/>
<path d="M1129.02 12.2581C1127.75 11.5706 1126.18 12.0494 1125.48 13.3139C1124.81 14.5907 1125.29 16.1622 1126.55 16.8497C1127.82 17.5372 1129.39 17.0584 1130.09 15.7939C1130.75 14.5171 1130.28 12.9333 1129.02 12.2581Z" fill="#9FCFFF"/>
<path d="M1044.87 18.152C1043.72 17.5259 1042.31 17.9556 1041.69 19.0974C1041.08 20.2269 1041.49 21.6633 1042.64 22.2771C1043.77 22.891 1045.19 22.4613 1045.82 21.3072C1046.44 20.19 1046.01 18.7659 1044.87 18.152Z" fill="#9FCFFF"/>
<path d="M1380.49 41.4084C1379.63 40.9419 1378.55 41.2734 1378.09 42.1205C1377.62 42.9799 1377.95 44.0725 1378.81 44.539C1379.67 45.0056 1380.74 44.6741 1381.2 43.8147C1381.68 42.9553 1381.35 41.8749 1380.49 41.4084Z" fill="#9FCFFF"/>
<path d="M1390.54 31.9413C1389.16 31.1924 1387.45 31.708 1386.72 33.0708C1385.97 34.4458 1386.5 36.1523 1387.86 36.9012C1389.22 37.6378 1390.95 37.1344 1391.69 35.7594C1392.41 34.3844 1391.91 32.6779 1390.54 31.9413Z" fill="#9FCFFF"/>
<path d="M1297.01 222.584C1296.21 222.155 1295.2 222.449 1294.77 223.247C1294.34 224.045 1294.65 225.04 1295.44 225.457C1296.23 225.887 1297.24 225.604 1297.66 224.806C1298.09 223.996 1297.81 223.002 1297.01 222.584Z" fill="#9FCFFF"/>
<path d="M1300.9 227.619C1299.5 226.858 1297.76 227.385 1297 228.785C1296.23 230.185 1296.76 231.928 1298.16 232.689C1299.56 233.45 1301.32 232.91 1302.07 231.523C1302.84 230.123 1302.31 228.368 1300.9 227.619Z" fill="#9FCFFF"/>
<path d="M1120.82 249.217C1119.64 248.591 1118.15 249.021 1117.53 250.212C1116.89 251.39 1117.33 252.864 1118.51 253.502C1119.7 254.14 1121.17 253.698 1121.8 252.52C1122.42 251.329 1121.98 249.856 1120.82 249.217Z" fill="#9FCFFF"/>
<path d="M926.122 333.427C925.324 332.997 924.292 333.291 923.863 334.102C923.433 334.912 923.727 335.919 924.538 336.361C925.36 336.79 926.355 336.496 926.797 335.686C927.239 334.863 926.92 333.856 926.122 333.427Z" fill="#9FCFFF"/>
<path d="M1406.63 72.6951C1405.57 72.1181 1404.23 72.5232 1403.66 73.5913C1403.07 74.6594 1403.48 75.9853 1404.55 76.5746C1405.61 77.1517 1406.95 76.7465 1407.52 75.6784C1408.09 74.6103 1407.7 73.2721 1406.63 72.6951Z" fill="#9FCFFF"/>
<path d="M1336.66 107.948C1335.46 107.31 1333.97 107.752 1333.33 108.942C1332.68 110.146 1333.13 111.631 1334.32 112.27C1335.51 112.908 1337 112.466 1337.65 111.263C1338.28 110.084 1337.83 108.599 1336.66 107.948Z" fill="#9FCFFF"/>
<path d="M1307.71 68.8887C1306.86 68.4222 1305.79 68.7537 1305.32 69.6131C1304.85 70.4725 1305.19 71.5529 1306.03 72.0071C1306.89 72.4859 1307.97 72.1667 1308.43 71.3073C1308.89 70.4234 1308.57 69.343 1307.71 68.8887Z" fill="#9FCFFF"/>
<path d="M1113.94 277.336C1113.06 276.845 1111.94 277.177 1111.46 278.073C1110.99 278.957 1111.33 280.062 1112.21 280.553C1113.09 281.032 1114.21 280.688 1114.69 279.804C1115.16 278.92 1114.82 277.815 1113.94 277.336Z" fill="#9FCFFF"/>
<path d="M1393.93 192.82C1392.86 192.255 1391.51 192.661 1390.94 193.716C1390.36 194.797 1390.76 196.135 1391.84 196.7C1392.91 197.289 1394.24 196.872 1394.82 195.816C1395.41 194.735 1395.01 193.385 1393.93 192.82Z" fill="#9FCFFF"/>
<path d="M1109.63 249.893C1108.82 249.463 1107.81 249.758 1107.38 250.568C1106.95 251.366 1107.26 252.36 1108.06 252.802C1108.87 253.232 1109.86 252.938 1110.31 252.127C1110.72 251.329 1110.43 250.323 1109.63 249.893Z" fill="#9FCFFF"/>
<path d="M1236.85 225.421C1235.94 224.93 1234.81 225.261 1234.32 226.158C1233.84 227.078 1234.18 228.208 1235.1 228.699C1235.99 229.178 1237.12 228.846 1237.6 227.938C1238.09 227.041 1237.75 225.9 1236.85 225.421Z" fill="#9FCFFF"/>
<path d="M1176.35 217.673C1175.03 216.961 1173.38 217.452 1172.66 218.79C1171.95 220.116 1172.44 221.773 1173.76 222.473C1175.09 223.185 1176.75 222.694 1177.47 221.368C1178.18 220.054 1177.68 218.385 1176.35 217.673Z" fill="#9FCFFF"/>
<path d="M1172.55 234.323C1171.77 233.893 1170.8 234.188 1170.39 234.974C1169.96 235.747 1170.25 236.705 1171.03 237.122C1171.8 237.54 1172.77 237.257 1173.2 236.484C1173.6 235.698 1173.32 234.753 1172.55 234.323Z" fill="#9FCFFF"/>
<path d="M1267.46 23.4198C1266.67 22.9901 1265.7 23.2847 1265.27 24.0828C1264.86 24.8562 1265.14 25.8384 1265.92 26.2681C1266.72 26.6732 1267.67 26.3908 1268.11 25.6051C1268.53 24.8194 1268.24 23.8495 1267.46 23.4198Z" fill="#9FCFFF"/>
<path d="M973.727 312.086C972.769 311.582 971.579 311.926 971.063 312.884C970.547 313.829 970.903 315.032 971.861 315.535C972.831 316.051 974.009 315.695 974.525 314.737C975.041 313.792 974.672 312.601 973.727 312.086Z" fill="#9FCFFF"/>
<path d="M925.409 351.477C924.611 351.059 923.629 351.354 923.199 352.14C922.782 352.925 923.076 353.92 923.862 354.349C924.66 354.755 925.642 354.472 926.06 353.674C926.49 352.888 926.195 351.919 925.409 351.477Z" fill="#9FCFFF"/>
<path d="M1197.5 128.896C1196.34 128.282 1194.9 128.712 1194.27 129.866C1193.66 131.02 1194.07 132.481 1195.24 133.095C1196.39 133.721 1197.83 133.279 1198.46 132.125C1199.09 130.971 1198.65 129.522 1197.5 128.896Z" fill="#9FCFFF"/>
<path d="M1277.12 109.593C1276.28 109.139 1275.24 109.458 1274.78 110.293C1274.33 111.128 1274.65 112.172 1275.48 112.626C1276.32 113.08 1277.36 112.761 1277.82 111.926C1278.27 111.091 1277.95 110.048 1277.12 109.593Z" fill="#9FCFFF"/>
<path d="M1159.63 138.228C1158.76 137.761 1157.67 138.081 1157.2 138.952C1156.73 139.836 1157.06 140.917 1157.94 141.395C1158.81 141.862 1159.9 141.53 1160.35 140.659C1160.83 139.775 1160.5 138.694 1159.63 138.228Z" fill="#9FCFFF"/>
<path d="M1269.2 122.142C1267.87 121.43 1266.21 121.922 1265.5 123.26C1264.79 124.573 1265.29 126.218 1266.6 126.943C1267.94 127.655 1269.58 127.164 1270.3 125.826C1271.01 124.512 1270.52 122.867 1269.2 122.142Z" fill="#9FCFFF"/>
<path d="M1250.7 130.492C1249.78 129.989 1248.64 130.357 1248.14 131.266C1247.65 132.186 1247.99 133.328 1248.92 133.832C1249.84 134.323 1250.99 133.979 1251.49 133.058C1251.98 132.15 1251.62 130.996 1250.7 130.492Z" fill="#9FCFFF"/>
<path d="M1199.13 133.525C1198.08 132.96 1196.76 133.353 1196.19 134.409C1195.62 135.465 1196.01 136.779 1197.07 137.343C1198.12 137.908 1199.44 137.515 1200.02 136.459C1200.57 135.416 1200.19 134.09 1199.13 133.525Z" fill="#9FCFFF"/>
<path d="M775.925 58.4639C774.943 57.936 773.715 58.3043 773.2 59.2987C772.672 60.2809 773.04 61.5086 774.022 62.0365C775.004 62.5644 776.232 62.2084 776.748 61.2016C777.276 60.2318 776.92 59.0041 775.925 58.4639Z" fill="#9FCFFF"/>
<path d="M1032.14 178.564C1031.07 177.987 1029.76 178.38 1029.18 179.448C1028.6 180.516 1028.99 181.842 1030.06 182.419C1031.13 182.996 1032.47 182.591 1033.03 181.523C1033.61 180.455 1033.21 179.129 1032.14 178.564Z" fill="#9FCFFF"/>
<path d="M1037.12 175.421C1036.31 174.979 1035.28 175.286 1034.83 176.108C1034.4 176.931 1034.69 177.938 1035.52 178.404C1036.34 178.846 1037.36 178.539 1037.81 177.717C1038.27 176.882 1037.95 175.875 1037.12 175.421Z" fill="#9FCFFF"/>
<path d="M1025.15 144.073C1023.74 143.324 1022.01 143.839 1021.26 145.227C1020.5 146.626 1021.03 148.37 1022.43 149.119C1023.81 149.88 1025.56 149.352 1026.31 147.94C1027.05 146.565 1026.54 144.834 1025.15 144.073Z" fill="#9FCFFF"/>
<path d="M1026.91 164.173C1026.17 163.768 1025.24 164.038 1024.83 164.787C1024.43 165.536 1024.71 166.481 1025.46 166.874C1026.21 167.279 1027.13 166.997 1027.55 166.26C1027.95 165.512 1027.67 164.578 1026.91 164.173Z" fill="#9FCFFF"/>
<path d="M1351.65 342.857C1350.7 342.341 1349.51 342.685 1349 343.642C1348.48 344.588 1348.84 345.791 1349.79 346.294C1350.74 346.81 1351.92 346.454 1352.43 345.496C1352.95 344.551 1352.61 343.36 1351.65 342.857Z" fill="#9FCFFF"/>
<path d="M1348.19 364.787C1347.36 364.357 1346.36 364.652 1345.91 365.462C1345.49 366.26 1345.78 367.279 1346.59 367.733C1347.4 368.163 1348.42 367.856 1348.85 367.046C1349.29 366.236 1349 365.204 1348.19 364.787Z" fill="#9FCFFF"/>
</g>
</g>
<defs>
<linearGradient id="paint0_linear" x1="751.5" y1="9.35895e-07" x2="763.5" y2="1350" gradientUnits="userSpaceOnUse">
<stop stop-color="#9A0000"/>
<stop offset="1" stop-color="#B81515"/>
</linearGradient>
<linearGradient id="paint1_linear" x1="218.457" y1="227.586" x2="-106.098" y2="288.112" gradientUnits="userSpaceOnUse">
<stop stop-color="white"/>
<stop offset="1" stop-color="white" stop-opacity="0"/>
</linearGradient>
<linearGradient id="paint2_linear" x1="-129.773" y1="174.424" x2="55.7583" y2="75.5599" gradientUnits="userSpaceOnUse">
<stop stop-color="white"/>
<stop offset="1" stop-color="white" stop-opacity="0"/>
</linearGradient>
<linearGradient id="paint3_linear" x1="32.2058" y1="415.805" x2="10.5109" y2="543.018" gradientUnits="userSpaceOnUse">
<stop stop-color="white"/>
<stop offset="1" stop-color="white" stop-opacity="0"/>
</linearGradient>
<linearGradient id="paint4_linear" x1="237.063" y1="641.519" x2="152.507" y2="810.569" gradientUnits="userSpaceOnUse">
<stop stop-color="white"/>
<stop offset="1" stop-color="white" stop-opacity="0"/>
</linearGradient>
<linearGradient id="paint5_linear" x1="442.641" y1="130.935" x2="-114.632" y2="792.593" gradientUnits="userSpaceOnUse">
<stop stop-color="white"/>
<stop offset="1" stop-color="white" stop-opacity="0"/>
</linearGradient>
<linearGradient id="paint6_linear" x1="314.216" y1="531.792" x2="44.9423" y2="851.505" gradientUnits="userSpaceOnUse">
<stop stop-color="white"/>
<stop offset="1" stop-color="white" stop-opacity="0"/>
</linearGradient>
<linearGradient id="paint7_linear" x1="67.8755" y1="220.896" x2="-287.522" y2="642.865" gradientUnits="userSpaceOnUse">
<stop stop-color="white"/>
<stop offset="1" stop-color="white" stop-opacity="0"/>
</linearGradient>
<linearGradient id="paint8_linear" x1="214.726" y1="549.567" x2="187.548" y2="581.835" gradientUnits="userSpaceOnUse">
<stop stop-color="white"/>
<stop offset="1" stop-color="white" stop-opacity="0"/>
</linearGradient>
<radialGradient id="paint9_radial" cx="0" cy="0" r="1" gradientUnits="userSpaceOnUse" gradientTransform="translate(-48.5172 404.639) rotate(-91.7268) scale(52.9893 470.589)">
<stop stop-color="white"/>
<stop offset="0.1869" stop-color="#B0B8B8" stop-opacity="0.7171"/>
<stop offset="0.3521" stop-color="#728081" stop-opacity="0.4669"/>
<stop offset="0.4909" stop-color="#465859" stop-opacity="0.2567"/>
<stop offset="0.598" stop-color="#2A3F40" stop-opacity="0.0945"/>
<stop offset="0.6605" stop-color="#203637" stop-opacity="0"/>
</radialGradient>
<linearGradient id="paint10_linear" x1="1130.9" y1="399.031" x2="1296.23" y2="213.683" gradientUnits="userSpaceOnUse">
<stop stop-color="white"/>
<stop offset="1" stop-color="white" stop-opacity="0"/>
</linearGradient>
<linearGradient id="paint11_linear" x1="1258.52" y1="103.248" x2="1341.75" y2="207.666" gradientUnits="userSpaceOnUse">
<stop stop-color="white"/>
<stop offset="1" stop-color="white" stop-opacity="0"/>
</linearGradient>
<linearGradient id="paint12_linear" x1="1360.28" y1="263.274" x2="1307.05" y2="381.502" gradientUnits="userSpaceOnUse">
<stop stop-color="white"/>
<stop offset="1" stop-color="white" stop-opacity="0"/>
</linearGradient>
<linearGradient id="paint13_linear" x1="1190.2" y1="206.594" x2="1152.81" y2="136.333" gradientUnits="userSpaceOnUse">
<stop stop-color="white"/>
<stop offset="1" stop-color="white" stop-opacity="0"/>
</linearGradient>
<linearGradient id="paint14_linear" x1="1005.11" y1="173.727" x2="982.606" y2="59.3384" gradientUnits="userSpaceOnUse">
<stop stop-color="white"/>
<stop offset="1" stop-color="white" stop-opacity="0"/>
</linearGradient>
<linearGradient id="paint15_linear" x1="1115.65" y1="-28.1149" x2="1115.65" y2="503.662" gradientUnits="userSpaceOnUse">
<stop stop-color="white"/>
<stop offset="1" stop-color="white" stop-opacity="0"/>
</linearGradient>
<linearGradient id="paint16_linear" x1="1014.62" y1="-3.25" x2="1014.62" y2="254.878" gradientUnits="userSpaceOnUse">
<stop stop-color="white"/>
<stop offset="1" stop-color="white" stop-opacity="0"/>
</linearGradient>
<linearGradient id="paint17_linear" x1="1247.64" y1="-26.1257" x2="1247.64" y2="308.009" gradientUnits="userSpaceOnUse">
<stop stop-color="white"/>
<stop offset="1" stop-color="white" stop-opacity="0"/>
</linearGradient>
<linearGradient id="paint18_linear" x1="1051.24" y1="187.43" x2="1051.24" y2="206.904" gradientUnits="userSpaceOnUse">
<stop stop-color="white"/>
<stop offset="1" stop-color="white" stop-opacity="0"/>
</linearGradient>
<radialGradient id="paint19_radial" cx="0" cy="0" r="1" gradientUnits="userSpaceOnUse" gradientTransform="translate(1231.46 183.833) rotate(48.3834) scale(32.6834 290.203)">
<stop stop-color="white"/>
<stop offset="0.1869" stop-color="#B0B8B8" stop-opacity="0.7171"/>
<stop offset="0.3521" stop-color="#728081" stop-opacity="0.4669"/>
<stop offset="0.4909" stop-color="#465859" stop-opacity="0.2567"/>
<stop offset="0.598" stop-color="#2A3F40" stop-opacity="0.0945"/>
<stop offset="0.6605" stop-color="#203637" stop-opacity="0"/>
</radialGradient>
</defs>
</svg>
